<?xml version="1.0" encoding="utf-8"?>
<!-- Generator: Adobe Illustrator 28.2.0, SVG Export Plug-In . SVG Version: 6.00 Build 0)  -->
<svg version="1.1" id="Layer_1" xmlns="http://www.w3.org/2000/svg" xmlns:xlink="http://www.w3.org/1999/xlink" x="0px" y="0px"
	 viewBox="0 0 638 100" style="enable-background:new 0 0 638 100;" xml:space="preserve">
<style type="text/css">
	.st0{fill:#FFFFFF;}
</style>
<g>
	<g>
		<g>
			<g>
				<rect x="288.5" y="23.5" class="st0" width="0.8" height="53"/>
			</g>
			<g>
				<g>
					<g>
						<path class="st0" d="M209.6,51v-3.5l3.5-0.4c1.2-0.1,1.7-1.2,1.9-1.5l8.7-14.2c0.7-1.1,0-2.1-0.9-2.2l-4.6-0.5v-3.5H238
							c1.1,0,1.8,0.8,2.3,1.4l11.6,17.7c0.9,1.4,1.6,2.5,2.8,2.7l3.6,0.4V51H236v-3.5l2.8-0.3c1.4-0.2,2.5-0.8,1.4-2.4l-1.1-1.6
							h-15.8l-1.2,2c-0.8,1.2,0,1.9,1.2,2.1l2.8,0.3V51H209.6 M226.2,38.6h10l-5-7.9L226.2,38.6"/>
						<path class="st0" d="M194.9,25.2h-25.5v3.5l3.2,0.3c1.2,0.2,1.7,1,1.7,2.2c0,1.2,0,12.8,0,13.9c0,1-0.4,1.9-1.5,2l-3.4,0.4V51
							l25.5,0c11.7,0,16.8-5.7,16.8-13.2C211.7,31,206.6,25.2,194.9,25.2 M190.9,46.1h-6.6V30.2h6.6c6.3,0,8.9,1.5,8.9,7.9
							C199.8,44.6,197.2,46.1,190.9,46.1"/>
						<path class="st0" d="M31,51h20.6v-3.4l-3.5-0.4c-0.8-0.1-1.6-0.6-1.6-2.3v-4.1h15.9v3.9c0,1.2-0.2,2.3-1.6,2.4l-3.6,0.4V51
							h20.6v-3.5l-3.6-0.4c-0.7-0.1-1.5-0.7-1.5-2.1V31.5c0-1.4,0.5-2.3,1.6-2.4l3.6-0.4v-3.5H57.2v3.5l3.6,0.5
							c1.2,0.2,1.6,1.1,1.6,2.4v4H46.4v-4.1c0-1.5,0.6-2.2,1.7-2.3l3.5-0.4v-3.5H31v3.5l3.4,0.4c1.4,0.2,1.7,1.2,1.7,2.5v13.1
							c0,1.5-0.4,2.3-1.7,2.5L31,47.6V51"/>
						<path class="st0" d="M78.8,38c0-8.1,6.5-13.7,21.1-13.7c14.5,0,21,5.7,21,13.7c0,8.3-6.5,13.9-21,13.9
							C85.3,51.9,78.8,46.3,78.8,38 M99.8,29.2c-5.9,0-9.2,2.2-9.2,8.8c0,6.8,3.3,9,9.2,9c5.9,0,9.2-2.2,9.2-9
							C109,31.4,105.7,29.2,99.8,29.2"/>
						<path class="st0" d="M122,51h16.5v-3.4l-3.5-0.4c-1-0.1-1.6-1-1.6-2.1V31.9L147,50c0.5,0.6,1.3,1,2.1,1h12.9V31.5
							c0-0.9,0.2-2.2,1.6-2.3l3.6-0.4v-3.5h-16.5v3.5l3.6,0.5c1.3,0.2,1.6,1.2,1.6,2.4v12.7l-13.6-17.9c-0.5-0.7-1.2-1.1-2.1-1.1
							H122v3.5l3.4,0.4c1.2,0.2,1.7,0.8,1.7,2.5v13.1c0,1.5-0.4,2.3-1.7,2.5l-3.4,0.4V51"/>
					</g>
					<g>
						<polygon class="st0" points="31.9,63.1 37.4,63.1 37.4,74.4 39.4,74.4 39.4,63.1 44.9,63.1 44.9,61.6 31.9,61.6 						"/>
						<path class="st0" d="M53.3,64.4c-1.7,0-3.2,0.7-4,2v-4.7h-1.9v12.8h1.9v-4.5c0-3,1.9-4.1,3.8-4.1c1.9,0,2.9,1.1,2.9,3.2v5.4
							h1.9v-5.5C57.9,66,56.3,64.4,53.3,64.4z"/>
						<path class="st0" d="M101.6,65.4c-1-0.9-2.5-1.4-4.5-1.4c-1.9,0-3.4,0.5-4.4,1.5c-1,0.9-1.5,2.2-1.5,3.8c0,1.7,0.5,3,1.5,3.9
							c1,0.9,2.5,1.4,4.4,1.4c3.9,0,6-1.9,6-5.3C103.1,67.6,102.6,66.3,101.6,65.4z M101.1,69.3c0,1.1-0.4,2.1-1,2.8
							c-0.7,0.7-1.7,1.1-3,1.1c-1.2,0-2.2-0.4-2.9-1.1c-0.7-0.7-1-1.7-1-2.8c0-2.4,1.5-3.9,3.9-3.9C99.6,65.4,101.1,66.8,101.1,69.3
							z"/>
						<path class="st0" d="M159.6,65.4c-1-0.9-2.5-1.4-4.5-1.4c-1.9,0-3.4,0.5-4.4,1.5c-1,0.9-1.5,2.3-1.5,3.8c0,3.4,2.1,5.3,6,5.3
							c1.9,0,3.4-0.5,4.4-1.4c1-0.9,1.5-2.2,1.5-3.9C161.1,67.6,160.6,66.3,159.6,65.4z M152.2,66.5c0.7-0.7,1.7-1.1,2.9-1.1
							c2.5,0,4,1.4,4,3.9c0,1.1-0.4,2.1-1,2.8c-0.7,0.7-1.7,1.1-3,1.1c-2.4,0-4-1.5-4-3.9C151.2,68.1,151.5,67.1,152.2,66.5z"/>
						<path class="st0" d="M199,64.1c-1.9,0.2-2.9,1.4-3.6,2.5v-2.5h-1.7v10.2h2V69c0-1,0.4-1.8,1.1-2.4c0.7-0.6,1.6-0.9,2.6-0.9
							l0.9,0v-1.6l0,0C200,64.1,199.2,64.1,199,64.1z"/>
						<path class="st0" d="M84.3,61.6c0,0-5.8,0-5.8,0v12.8h2v-4.9h4.1c1.7,0,3.1-0.4,4-1.1c0.8-0.7,1.3-1.7,1.3-2.9
							c0-1-0.3-1.8-0.9-2.4C88,62.1,86.4,61.6,84.3,61.6z M87.7,65.4c0,1.8-1,2.6-3.3,2.6h-3.9v-5h3.8
							C86.6,63.1,87.7,63.8,87.7,65.4z"/>
						<path class="st0" d="M189,63.3c-1.2-1.1-3.2-1.7-5.7-1.7h-5.7v12.8h5.8c2.4,0,4.2-0.6,5.5-1.7c1.3-1.1,1.9-2.7,1.9-4.7
							C190.8,65.9,190.2,64.3,189,63.3z M179.6,63.1h3.2c2.3,0,3.8,0.4,4.7,1.2c0.8,0.8,1.2,1.9,1.2,3.7c0,3.3-1.8,4.9-5.6,4.9h-3.5
							V63.1z"/>
						<path class="st0" d="M224.8,72.2V68c0-1.1,0-1.9-1.1-2.8c-0.9-0.8-2.4-1.2-3.9-1.2c-1.5,0-4.2,0.4-4.7,2.5h2.1
							c0.3-0.7,1.3-1.2,2.6-1.2c1.8,0,3.1,0.8,3.1,2.4v0.3h-1c-0.2,0-0.4,0-0.6,0c-1.8,0-4.5,0.1-5.8,1.4c-0.5,0.5-0.7,1.1-0.7,1.9
							c0,1.9,1.6,3.2,4.1,3.2c1.9,0,3.1-0.3,4.1-1.7c0,0,0,0.9,0.1,1.5c0.2,0,1.8,0,1.8,0S224.8,73.3,224.8,72.2z M222.9,69.9
							c0,2.2-1.2,3.4-3.6,3.4c-1.6,0-2.5-0.7-2.5-1.9c0-0.4,0.1-0.8,0.4-1c0.8-0.8,2.5-0.9,3.8-0.9c0.2,0,0.4,0,0.6,0
							c0.1,0,0.3,0,0.4,0h0.9V69.9z"/>
						<path class="st0" d="M240.3,64c-2.1,0-3.2,1.3-3.7,2.4c-0.6-1.5-1.9-2.4-3.4-2.4c-1.6,0-2.8,0.8-3.6,2.1c0,0,0-0.9-0.1-1.9
							c-0.5,0-0.5,0-1.8,0c0.1,0.8,0.1,1.7,0.1,2.5v7.7h1.9v-4.9c0-2.8,1.5-4.1,3.1-4.1c1.6,0,2.3,1.2,2.3,3.8v5.2h1.9v-4.9
							c0-1.5,0.4-2.6,1.2-3.3c0.8-0.7,1.6-0.8,1.8-0.8c0.9,0,1.5,0.3,1.9,1c0.3,0.6,0.5,1.5,0.5,2.9v5.1h1.9v-5.8
							c0-1.5-0.4-2.7-1.1-3.5C242.5,64.4,241.6,64,240.3,64z"/>
						<path class="st0" d="M254.2,68.8l-3.2-0.7c-1.5-0.3-2.2-0.7-2.2-1.4c0-0.9,1.2-1.4,2.9-1.4c1.4,0,2.5,0.4,2.8,1.2h2.1
							c-0.1-0.9-0.6-1.5-1.5-2c-1-0.5-2.4-0.6-3.3-0.6c-1.3,0-2.5,0.3-3.3,0.7c-1,0.5-1.6,1.3-1.6,2.4c0,1.3,1,2.2,2.8,2.5l3,0.6
							c1,0.2,2.1,0.5,2.1,1.4c0,1.1-1.1,1.6-3.1,1.6c-1.7,0-2.7-0.5-3-1.5h-2.1c0.4,2.3,2.8,2.8,4.9,2.8c3.6,0,5.4-1,5.4-3.2
							C256.8,70,256.1,69.2,254.2,68.8z"/>
						<path class="st0" d="M168.3,61.4c-1,0-2,0.1-2.7,0.7c-0.3,0.3-0.6,0.7-0.8,1.3c-0.2,0.5-0.2,1.1-0.2,2.1h-2.1v1.4h2.1l0,7.5h2
							v-7.5h3.5v-1.4c0,0-3.1,0-3.5,0c0-1.4,0.1-1.9,0.5-2.3c0.3-0.3,0.7-0.4,1.6-0.4c0.6,0,1.2,0.1,1.5,0.2c0-0.2,0-1.3,0-1.4
							C169.6,61.5,169,61.4,168.3,61.4z"/>
						<path class="st0" d="M118.5,68.7c-0.4,1.2-0.8,2.6-1.3,4.3h0c-0.4-1.4-0.8-2.8-1.3-4.2l-1.3-4.1l0,0h-3l-1.4,4.1
							c-0.5,1.4-0.9,2.8-1.3,4.2h0c-0.5-1.7-0.9-3.1-1.3-4.3l-1.3-4l0,0h-2.1l3.1,9.7l0,0h3l1.4-4.2c0.1-0.4,0.2-0.7,0.3-1.1
							c0.3-1,0.6-2.1,1-3.1h0c0.3,1.1,0.7,2.2,1,3.2c0.1,0.3,0.2,0.6,0.3,0.9l1.4,4.2l0,0h3l3.1-9.7l0,0h-2.1L118.5,68.7z"/>
						<path class="st0" d="M142,64.1c-1.9,0.2-2.9,1.4-3.6,2.5v-2.5h-1.7v10.2h2V69c0-1,0.4-1.8,1.1-2.4c0.7-0.6,1.6-0.9,2.6-0.9
							l0.9,0v-1.6l0,0C143,64.1,142.2,64.1,142,64.1z"/>
						<path class="st0" d="M132.7,65.4c-0.9-0.9-2.2-1.4-3.9-1.4c-3.5,0-5.5,2-5.5,5.5c0,1.5,0.5,2.8,1.4,3.7
							c0.9,0.9,2.4,1.4,4.1,1.4c1.3,0,2.4-0.3,3.3-0.8c0.8-0.5,1.5-1.1,1.8-2h-2.1c-0.5,0.9-1.7,1.5-3,1.5c-1.4,0-2.5-0.6-3-1.8
							c-0.2-0.5-0.4-1-0.4-1.6h8.8v-0.6C134,67.6,133.5,66.3,132.7,65.4z M125.2,68.5c0-0.2,0.1-0.4,0.1-0.6
							c0.4-1.6,1.6-2.5,3.4-2.5c2.3,0,3.2,1.6,3.2,3.1H125.2z"/>
						<path class="st0" d="M211.2,65.4c-0.9-0.9-2.2-1.4-3.9-1.4c-3.5,0-5.5,2-5.5,5.5c0,1.5,0.5,2.8,1.4,3.7
							c0.9,0.9,2.4,1.4,4.1,1.4c1.3,0,2.4-0.3,3.3-0.8c0.8-0.5,1.5-1.1,1.8-2h-2.1c-0.5,0.9-1.7,1.5-3,1.5c-1.4,0-2.5-0.6-3-1.8
							c-0.2-0.5-0.4-1-0.4-1.6c0,0,8.6,0,8.8,0c0-0.3,0-0.7,0-1.3C212.5,67.6,212.2,66.3,211.2,65.4z M203.8,68.5
							c0-0.2,0.1-0.4,0.1-0.6c0.4-1.6,1.6-2.5,3.4-2.5c2.3,0,3.2,1.6,3.2,3.1H203.8z"/>
						<path class="st0" d="M69.5,65.4c-0.9-0.9-2.2-1.4-3.9-1.4c-3.5,0-5.5,2-5.5,5.5c0,1.5,0.5,2.8,1.4,3.7
							c0.9,0.9,2.4,1.4,4.1,1.4c1.3,0,2.4-0.3,3.3-0.8c0.8-0.5,1.5-1.1,1.8-2h-2.1c-0.5,0.9-1.7,1.5-3,1.5c-1.4,0-2.5-0.6-3-1.8
							c-0.2-0.5-0.4-1-0.4-1.6h8.8v-0.6C70.9,67.6,70.4,66.3,69.5,65.4z M62.1,68.5c0-0.2,0.1-0.4,0.1-0.6c0.4-1.6,1.6-2.5,3.4-2.5
							c2.3,0,3.2,1.6,3.2,3.1H62.1z"/>
					</g>
				</g>
			</g>
			<polygon class="st0" points="403.6,69.2 395.4,65.2 395.4,73.2 			"/>
			<g>
				<path class="st0" d="M320.1,69c0-3.4,2-5.4,4.9-5.4c2.2,0,4.1,1.1,4.6,3.7H328c-0.4-1.7-1.6-2.3-3-2.3c-2,0-3.3,1.5-3.3,4
					c0,2.5,1.3,4,3.3,4c1.4,0,2.8-0.8,3.1-2.7h1.6c-0.3,2.7-2.4,4.1-4.6,4.1C322.2,74.4,320.1,72.3,320.1,69z"/>
				<path class="st0" d="M340.2,72.9c0,0.5,0.1,0.9,0.4,1.3h-1.6c-0.2-0.3-0.3-0.8-0.3-1.3l0-1.1c-0.1-1.4-0.6-1.8-1.8-1.8h-3v4.3
					h-1.6V63.8h4.5c2.2,0,3.6,1.1,3.6,2.9c0,1.3-0.7,2.2-1.8,2.5c1.1,0.3,1.4,1,1.5,2.1L340.2,72.9z M336.8,68.6
					c1.1,0,1.9-0.6,1.9-1.8c0-1.2-0.8-1.7-2.1-1.7h-2.9v3.5H336.8z"/>
				<path class="st0" d="M350.6,65.2h-5.9v2.9h5.3v1.4h-5.3v3.3h5.8v1.4h-7.4V63.8h7.4V65.2z"/>
				<path class="st0" d="M360.7,74.2l-1-2.7H355l-1,2.7h-1.6l4.1-10.4h1.8l4.1,10.4H360.7z M355.5,70.1h3.7l-0.2-0.6
					c-0.4-1.1-1.1-2.8-1.6-4.3c-0.5,1.4-1.2,3.2-1.6,4.3L355.5,70.1z"/>
				<path class="st0" d="M370.8,63.8v1.4h-3.4v9h-1.6v-9h-3.4v-1.4H370.8z"/>
				<path class="st0" d="M380.2,65.2h-5.9v2.9h5.3v1.4h-5.3v3.3h5.8v1.4h-7.4V63.8h7.4V65.2z"/>
				<path class="st0" d="M426,63.8v1.4h-3.4v9h-1.6v-9h-3.4v-1.4H426z"/>
				<path class="st0" d="M436.2,72.9c0,0.5,0.1,0.9,0.4,1.3h-1.6c-0.2-0.3-0.3-0.8-0.3-1.3l0-1.1c-0.1-1.4-0.6-1.8-1.8-1.8h-3v4.3
					h-1.6V63.8h4.5c2.2,0,3.6,1.1,3.6,2.9c0,1.3-0.7,2.2-1.8,2.5c1.1,0.3,1.4,1,1.5,2.1L436.2,72.9z M432.8,68.6
					c1.1,0,1.9-0.6,1.9-1.8c0-1.2-0.8-1.7-2.1-1.7h-2.9v3.5H432.8z"/>
				<path class="st0" d="M446.5,74.2l-1-2.7h-4.7l-1,2.7h-1.6l4.1-10.4h1.8l4.1,10.4H446.5z M441.3,70.1h3.7l-0.2-0.6
					c-0.4-1.1-1.1-2.8-1.6-4.3c-0.5,1.4-1.2,3.2-1.6,4.3L441.3,70.1z"/>
				<path class="st0" d="M457.2,63.8h1.5v10.4h-1.8l-3.2-5c-0.7-1.1-1.5-2.3-2-3.3c0.1,2,0.1,3.8,0.1,5.2v3.2h-1.5V63.8h1.8l3.2,5
					c0.7,1,1.5,2.4,2,3.4c-0.1-2-0.1-3.8-0.1-5.2V63.8z"/>
				<path class="st0" d="M461.4,70.7h1.6c0,1.8,1.3,2.3,2.8,2.3c1.6,0,2.4-0.6,2.4-1.7c0-0.9-0.6-1.3-2.4-1.7l-0.9-0.2
					c-1.9-0.4-3.2-1.2-3.2-3.1c0-1.7,1.4-2.8,3.7-2.8c3,0,4.1,1.5,4.1,3.3H468c-0.1-1.2-0.7-2-2.6-2c-1.4,0-2.1,0.6-2.1,1.5
					c0,0.9,0.5,1.4,2.3,1.8l0.9,0.2c2.4,0.5,3.3,1.4,3.3,3c0,1.9-1.5,3.1-4,3.1C463.1,74.4,461.4,73.3,461.4,70.7z"/>
				<path class="st0" d="M471.8,69c0-3.4,2-5.4,4.9-5.4c2.2,0,4.1,1.1,4.6,3.7h-1.6c-0.4-1.7-1.6-2.3-3-2.3c-2,0-3.3,1.5-3.3,4
					c0,2.5,1.3,4,3.3,4c1.4,0,2.8-0.8,3.1-2.7h1.6c-0.3,2.7-2.4,4.1-4.6,4.1C473.8,74.4,471.8,72.3,471.8,69z"/>
				<path class="st0" d="M491.4,65.2h-5.9v2.9h5.3v1.4h-5.3v3.3h5.8v1.4h-7.4V63.8h7.4V65.2z"/>
				<path class="st0" d="M501.1,63.8h1.5v10.4h-1.8l-3.2-5c-0.7-1.1-1.5-2.3-2-3.3c0.1,2,0.1,3.8,0.1,5.2v3.2h-1.5V63.8h1.8l3.2,5
					c0.7,1,1.5,2.4,2,3.4c-0.1-2-0.1-3.8-0.1-5.2V63.8z"/>
				<path class="st0" d="M514.4,69c0,3.2-1.9,5.2-5.2,5.2h-3.7V63.8h3.7C512.5,63.8,514.4,65.8,514.4,69z M509.3,72.8
					c2.3,0,3.5-1.4,3.5-3.8s-1.2-3.8-3.5-3.8h-2.1v7.7H509.3z"/>
				<path class="st0" d="M517.6,72.3h1.9v2c0,1.5-0.6,2.1-1.7,2.2l-0.2,0v-1l0.2,0c0.5,0,0.7-0.4,0.7-1.1v-0.2h-0.9V72.3z"/>
				<path class="st0" d="M537.1,74.2l-1-2.7h-4.7l-1,2.7h-1.6l4.1-10.4h1.8l4.1,10.4H537.1z M531.9,70.1h3.7l-0.2-0.6
					c-0.4-1.1-1.1-2.8-1.6-4.3c-0.5,1.4-1.2,3.2-1.6,4.3L531.9,70.1z"/>
				<path class="st0" d="M540.2,70.3v-6.5h1.6v6.5c0,1.9,1,2.7,2.6,2.7c1.7,0,2.6-0.8,2.6-2.7v-6.5h1.6v6.5c0,2.6-1.6,4.1-4.2,4.1
					C541.8,74.4,540.2,72.9,540.2,70.3z"/>
				<path class="st0" d="M556.2,68.7h4.5v5.5h-1.2l-0.3-1.4c-0.7,1-1.9,1.6-3.4,1.6c-3,0-4.9-2.2-4.9-5.4c0-3.2,1.9-5.4,5-5.4
					c2.6,0,4.3,1.5,4.7,3.7H559c-0.3-1.4-1.5-2.3-3-2.3c-2.1,0-3.4,1.6-3.4,4s1.3,4,3.4,4c1.8,0,3.2-1.2,3.3-3h-3.1V68.7z"/>
				<path class="st0" d="M572.3,63.8h2.2v10.4H573v-3.3c0-1.5,0-3.3,0.1-5.3c-0.3,0.8-0.5,1.5-0.9,2.4l-2.4,6.1h-1.3l-2.4-6.1
					c-0.3-0.9-0.6-1.6-0.9-2.4c0.1,2,0.1,3.8,0.1,5.2v3.3h-1.5V63.8h2.2l2.1,5.5c0.4,1,0.8,2.1,1.1,2.9c0.3-0.9,0.7-2.1,1.1-3.1
					L572.3,63.8z"/>
				<path class="st0" d="M585.2,65.2h-5.9v2.9h5.3v1.4h-5.3v3.3h5.8v1.4h-7.4V63.8h7.4V65.2z"/>
				<path class="st0" d="M594.6,63.8h1.5v10.4h-1.8l-3.2-5c-0.7-1.1-1.5-2.3-2-3.3c0.1,2,0.1,3.8,0.1,5.2v3.2h-1.5V63.8h1.8l3.2,5
					c0.7,1,1.5,2.4,2,3.4c-0.1-2-0.1-3.8-0.1-5.2V63.8z"/>
				<path class="st0" d="M606.9,63.8v1.4h-3.4v9h-1.6v-9h-3.4v-1.4H606.9z"/>
			</g>
			<path class="st0" d="M479,68"/>
		</g>
		<g>
			<g>
				<path class="st0" d="M335.5,25.4h5.6v23.4h-5.6v-9.5h-9.4v9.5h-5.6V25.4h5.6v9h9.4V25.4z"/>
				<path class="st0" d="M343.5,40.3c0-5.4,3.5-8.9,8.9-8.9c5.4,0,8.9,3.5,8.9,8.9s-3.5,8.9-8.9,8.9C347,49.2,343.5,45.7,343.5,40.3
					z M356.1,40.3c0-3.2-1.4-4.8-3.7-4.8c-2.3,0-3.7,1.5-3.7,4.8c0,3.2,1.4,4.8,3.7,4.8C354.7,45.1,356.1,43.5,356.1,40.3z"/>
				<path class="st0" d="M384.5,31.8h5.5l-5.5,17h-5.4l-1.9-6.4c-0.5-1.5-0.9-3.1-1.3-4.6c-0.4,1.5-0.8,3.1-1.2,4.6l-1.9,6.4h-5.4
					l-5.6-17h5.5l1.6,5.5c0.6,1.9,1.1,3.8,1.6,5.7c0.5-1.9,1-3.8,1.5-5.7l1.5-5.4h4.7l1.5,5.4c0.5,1.9,1,3.8,1.5,5.7
					c0.5-1.9,1-3.8,1.6-5.7L384.5,31.8z"/>
				<path class="st0" d="M420.6,31.8h5.5l-5.5,17h-5.4l-1.9-6.4c-0.5-1.5-0.9-3.1-1.3-4.6c-0.4,1.5-0.8,3.1-1.2,4.6l-1.9,6.4h-5.4
					l-5.6-17h5.5l1.6,5.5c0.6,1.9,1.1,3.8,1.6,5.7c0.5-1.9,1-3.8,1.5-5.7l1.5-5.4h4.7l1.5,5.4c0.5,1.9,1,3.8,1.5,5.7
					c0.5-1.9,1-3.8,1.6-5.7L420.6,31.8z"/>
				<path class="st0" d="M426.6,40.3c0-5.4,3.4-8.9,8.7-8.9c5.3,0,8.7,3.6,8.7,9.4v1h-12.5c0.4,2.5,1.9,3.6,3.9,3.6
					c1.7,0,2.8-0.7,3.4-1.9h4.9c-0.9,3.5-4.2,5.7-8.3,5.7C430.2,49.2,426.6,45.7,426.6,40.3z M439.1,38.6c-0.4-2.1-1.7-3.4-3.8-3.4
					c-1.9,0-3.3,1-3.7,3.4H439.1z"/>
				<path class="st0" d="M480.1,37.8v11H475V38.7c0-1.8-0.7-2.9-2.5-2.9c-1.5,0-2.9,1-2.9,3.6v9.4h-5.1V38.7c0-1.8-0.7-2.9-2.5-2.9
					c-1.5,0-3,1-3,3.6v9.4h-5.1v-17h5v2.4c1.1-1.6,2.6-2.8,4.8-2.8c2.5,0,4.3,1.1,5.3,3.1c1.1-1.7,3-3.1,5.3-3.1
					C477.8,31.4,480.1,33.7,480.1,37.8z"/>
				<path class="st0" d="M482.5,40.3c0-5.4,3.5-8.9,8.9-8.9c5.4,0,8.9,3.5,8.9,8.9s-3.5,8.9-8.9,8.9C486,49.2,482.5,45.7,482.5,40.3
					z M495.1,40.3c0-3.2-1.4-4.8-3.7-4.8c-2.3,0-3.7,1.5-3.7,4.8c0,3.2,1.4,4.8,3.7,4.8C493.7,45.1,495.1,43.5,495.1,40.3z"/>
				<path class="st0" d="M513.6,31.8h5.3l-6,17h-6.1l-6-17h5.5l0.9,2.6c0.9,3.3,1.9,6.7,2.8,10c0.9-3.3,1.9-6.8,2.8-10L513.6,31.8z"
					/>
				<path class="st0" d="M519.2,40.3c0-5.4,3.4-8.9,8.7-8.9c5.3,0,8.7,3.6,8.7,9.4v1h-12.5c0.4,2.5,1.9,3.6,3.9,3.6
					c1.7,0,2.8-0.7,3.4-1.9h4.9c-0.9,3.5-4.2,5.7-8.3,5.7C522.7,49.2,519.2,45.7,519.2,40.3z M531.7,38.6c-0.4-2.1-1.7-3.4-3.8-3.4
					c-1.9,0-3.3,1-3.7,3.4H531.7z"/>
				<path class="st0" d="M556.7,31.8h5.3l-6.1,17.6c-1.5,4.3-3.4,5.8-8.4,5.8c-1,0-1.5,0-2-0.1v-3.9h1.6c1.9,0,2.6-1.1,2.6-2.4
					c0-1-0.4-2.2-0.8-3.3l-4.9-13.8h5.5l0.8,2.4c1,3.3,2,6.8,2.9,10.7c0.9-3.9,1.9-7.4,2.8-10.6L556.7,31.8z"/>
				<path class="st0" d="M562.3,40.3c0-5.4,3.5-8.9,8.9-8.9c5.4,0,8.9,3.5,8.9,8.9s-3.5,8.9-8.9,8.9
					C565.8,49.2,562.3,45.7,562.3,40.3z M574.9,40.3c0-3.2-1.4-4.8-3.7-4.8c-2.3,0-3.7,1.5-3.7,4.8c0,3.2,1.4,4.8,3.7,4.8
					C573.5,45.1,574.9,43.5,574.9,40.3z"/>
				<path class="st0" d="M593.7,31.8h5.1v17h-5v-2.4c-1.1,1.6-2.8,2.8-5.3,2.8c-3.4,0-5.9-2-5.9-6.2V31.8h5.1v10.1
					c0,1.9,0.8,2.9,2.7,2.9c1.6,0,3.2-1,3.2-3.5V31.8z"/>
				<path class="st0" d="M601.9,48.8v-5.7h5.8v5.7H601.9z"/>
			</g>
		</g>
	</g>
</g>
</svg>
