<?xml version="1.0" encoding="utf-8"?>
<!-- Generator: Adobe Illustrator 28.2.0, SVG Export Plug-In . SVG Version: 6.00 Build 0)  -->
<svg version="1.1" id="Layer_1" xmlns="http://www.w3.org/2000/svg" xmlns:xlink="http://www.w3.org/1999/xlink" x="0px" y="0px"
	 viewBox="0 0 385.5 118.2" style="enable-background:new 0 0 385.5 118.2;" xml:space="preserve">
<style type="text/css">
	.st0{fill:#CC0000;}
	.st1{fill:#FFFFFF;}
</style>
<g>
	<g>
		<g>
			<path class="st0" d="M303.8,62.2v-5.9l5.9-0.7c2.1-0.2,2.9-2.1,3.2-2.6l14.8-24c1.2-1.9,0-3.6-1.5-3.7l-7.8-0.9v-5.9H352
				c1.9,0,3.1,1.3,3.9,2.4l19.6,30c1.5,2.4,2.7,4.3,4.7,4.6l6.2,0.7v6h-37.8v-5.9l4.8-0.6c2.3-0.3,4.2-1.3,2.3-4.1l-1.8-2.7H327
				l-2.1,3.3c-1.3,2,0,3.3,2,3.5l4.8,0.6v5.9H303.8 M331.8,41.1h17l-8.6-13.5L331.8,41.1"/>
			<path class="st0" d="M278.7,18.5h-43.2v5.9l5.4,0.5c2,0.3,2.8,1.8,2.8,3.7c0,2,0,21.8,0,23.5c0,1.6-0.7,3.2-2.5,3.4l-5.8,0.7v5.7
				l43.3,0c19.9,0,28.5-9.7,28.5-22.5C307.2,28.2,298.6,18.5,278.7,18.5 M272,53.8h-11.1V26.9H272c10.6,0,15.1,2.5,15.1,13.4
				C287.1,51.4,282.7,53.8,272,53.8"/>
			<path class="st0" d="M0.7,62.2h35v-5.8l-6-0.7c-1.4-0.2-2.7-1-2.7-4v-7h26.9v6.7c0,2-0.3,3.9-2.7,4.1l-6.1,0.7v6h35v-6l-6.2-0.7
				c-1.2-0.2-2.6-1.1-2.6-3.6V29.2c0-2.3,0.8-3.9,2.7-4l6.1-0.7v-5.9h-35v5.9l6.1,0.8c2.1,0.3,2.7,1.9,2.7,4v6.8H26.9v-6.9
				c0-2.6,1-3.8,2.8-3.9l5.9-0.7v-5.9H0.7v5.9l5.8,0.7c2.3,0.3,2.9,2,2.8,4.2v22.1c0,2.5-0.7,3.9-2.9,4.2l-5.8,0.7V62.2"/>
			<path class="st0" d="M81.8,40.1c0-13.7,11.1-23.3,35.8-23.3c24.5,0,35.6,9.6,35.6,23.3c0,14.1-11.1,23.6-35.6,23.6
				C92.9,63.7,81.8,54.2,81.8,40.1 M117.5,25.2c-9.9,0-15.6,3.7-15.6,15c0,11.5,5.7,15.2,15.6,15.2c9.9,0,15.6-3.7,15.6-15.2
				C133.1,28.9,127.4,25.2,117.5,25.2"/>
			<path class="st0" d="M155.1,62.2h28v-5.8l-6-0.7c-1.7-0.2-2.7-1.6-2.7-3.6V29.8l23.2,30.6c0.8,1,2.2,1.7,3.6,1.7h21.9V29.1
				c0-1.6,0.4-3.7,2.7-3.9l6.1-0.7v-5.9h-28v5.9l6.1,0.8c2.1,0.3,2.7,2.1,2.7,4.1v21.6l-23.1-30.4c-0.9-1.1-2-1.9-3.6-1.9h-30.9v5.9
				l5.8,0.7c2.1,0.3,2.8,1.3,2.8,4.2v22.1c0,2.6-0.7,3.9-2.9,4.2l-5.7,0.7V62.2"/>
		</g>
		<g>
			<polygon class="st1" points="2.3,82.7 11.6,82.7 11.6,101.8 15,101.8 15,82.7 24.2,82.7 24.2,80.2 2.3,80.2 			"/>
			<path class="st1" d="M38.6,84.9c-3,0-5.4,1.2-6.9,3.3v-8h-3.3v21.7h3.3v-7.7c0-5.2,3.3-7,6.4-7c3.3,0,5,1.9,5,5.5v9.2h3.2v-9.4
				C46.3,87.6,43.6,84.9,38.6,84.9z"/>
			<path class="st1" d="M120.5,86.6c-1.7-1.6-4.3-2.4-7.6-2.4c-3.2,0-5.8,0.9-7.5,2.5c-1.7,1.6-2.6,3.8-2.6,6.5
				c0,2.9,0.9,5.1,2.6,6.6c1.7,1.6,4.3,2.3,7.5,2.3c6.5,0,10.2-3.2,10.2-9C123,90.3,122.2,88.1,120.5,86.6z M119.6,93.2
				c0,1.9-0.6,3.6-1.7,4.7c-1.2,1.2-2.9,1.9-5,1.9c-2.1,0-3.8-0.7-5-1.9c-1.1-1.2-1.7-2.8-1.7-4.7c0-4.2,2.5-6.6,6.7-6.6
				C117.1,86.6,119.6,89,119.6,93.2z"/>
			<path class="st1" d="M218.9,86.6c-1.7-1.6-4.3-2.4-7.6-2.4c-3.2,0-5.8,0.9-7.5,2.5c-1.7,1.6-2.6,3.8-2.6,6.5c0,5.8,3.6,9,10.2,9
				c3.3,0,5.8-0.8,7.5-2.3c1.7-1.5,2.6-3.8,2.6-6.6C221.5,90.3,220.6,88.1,218.9,86.6z M206.3,88.4c1.2-1.2,2.9-1.8,5-1.8
				c4.3,0,6.7,2.4,6.7,6.6c0,1.9-0.6,3.5-1.7,4.7c-1.2,1.3-2.9,1.9-5,1.9c-4.1,0-6.7-2.6-6.7-6.6C204.6,91.2,205.2,89.6,206.3,88.4z
				"/>
			<path class="st1" d="M285.7,84.4c-3.3,0.3-5,2.3-6.1,4.3v-4.2h-2.9v17.3h3.3v-9.1c0.1-1.7,0.7-3,1.9-4.1c1.2-1,2.6-1.5,4.4-1.5
				l1.6,0v-2.7l0,0C287.3,84.4,286,84.4,285.7,84.4z"/>
			<path class="st1" d="M91.1,80.2c0,0-9.8,0-9.8,0v21.6h3.4v-8.3h6.9c2.9,0,5.2-0.7,6.7-1.9c1.4-1.2,2.2-2.9,2.2-5
				c0-1.7-0.5-3.1-1.6-4.2C97.4,80.9,94.8,80.2,91.1,80.2z M96.9,86.6c0,3.1-1.7,4.4-5.6,4.4h-6.6v-8.4H91
				C95,82.6,96.9,83.9,96.9,86.6z"/>
			<path class="st1" d="M268.8,83c-2.1-1.9-5.3-2.8-9.6-2.8h-9.7v21.7h9.8c4,0,7.1-1,9.3-2.8c2.2-1.9,3.3-4.6,3.3-8.1
				C271.8,87.5,270.8,84.8,268.8,83z M252.9,82.7h5.5c3.9,0,6.5,0.7,8,2.1c1.4,1.3,2,3.2,2,6.2c0,5.6-3.1,8.4-9.5,8.4h-5.9V82.7z"/>
			<path class="st1" d="M329.5,98.2V91c0-1.8,0-3.3-1.8-4.8c-1.5-1.3-4-2-6.6-2c-2.6,0-7.1,0.7-7.9,4.3h3.6c0.5-1.1,2.2-2,4.3-2
				c3.1,0,5.2,1.4,5.2,4v0.6h-1.8c-0.3,0-0.6,0-1,0c-3,0-7.6,0.1-9.8,2.4c-0.8,0.8-1.2,1.9-1.2,3.2c0,3.2,2.8,5.5,6.9,5.5
				c3.2,0,5.2-0.5,7-2.9c0,0,0,1.5,0.2,2.6c0.4,0,3.1,0,3.1,0S329.5,99.9,329.5,98.2z M326.3,94.2c0,3.8-2,5.7-6,5.7
				c-2.8,0-4.3-1.2-4.3-3.2c0-0.7,0.2-1.3,0.7-1.8c1.3-1.3,4.2-1.5,6.4-1.5c0.3,0,0.7,0,1,0c0.2,0,0.4,0,0.6,0h1.6V94.2z"/>
			<path class="st1" d="M355.8,84.2c-3.6,0-5.4,2.3-6.3,4.2c-1-2.5-3.2-4.2-5.8-4.2c-2.7,0-4.8,1.3-6,3.6c0,0,0-1.6-0.1-3.3
				c-0.9,0-0.9,0-3.1,0c0.1,1.3,0.1,2.9,0.1,4.2v13.1h3.2v-8.3c0-4.7,2.6-6.9,5.2-6.9c2.7,0,3.9,2,3.9,6.4v8.8h3.2v-8.3
				c0-2.5,0.7-4.4,2-5.6c1.3-1.2,2.7-1.3,3.1-1.3c1.6,0,2.6,0.5,3.2,1.6c0.6,1,0.9,2.6,0.9,4.9v8.6h3.3v-9.9c0-2.6-0.7-4.6-1.9-5.9
				C359.6,84.9,357.9,84.2,355.8,84.2z"/>
			<path class="st1" d="M379.3,92.4l-5.4-1.1c-2.6-0.5-3.7-1.2-3.7-2.4c0-1.6,2-2.4,5-2.4c2.4,0,4.2,0.6,4.7,2h3.5
				c-0.2-1.5-1.1-2.6-2.6-3.3c-1.7-0.8-4.1-1-5.6-1c-2.3,0-4.2,0.4-5.6,1.2c-1.6,0.9-2.7,2.3-2.7,4c0,2.3,1.7,3.7,4.7,4.3l5.1,1.1
				c1.8,0.4,3.6,0.9,3.6,2.4c0,1.8-1.9,2.7-5.3,2.7c-2.8,0-4.5-0.8-5.1-2.5h-3.6c0.7,3.9,4.8,4.8,8.3,4.8c6.1,0,9.1-1.8,9.1-5.4
				C383.8,94.4,382.5,93.1,379.3,92.4z"/>
			<path class="st1" d="M233.7,79.8c-1.8,0-3.3,0.2-4.6,1.3c-0.6,0.5-1.1,1.2-1.4,2.2c-0.3,0.9-0.4,1.9-0.4,3.5h-3.5v2.3h3.5l0,12.7
				h3.3V89.1h6v-2.3c0,0-5.3,0-6,0c0-2.4,0.1-3.2,0.8-3.8c0.5-0.5,1.2-0.8,2.8-0.8c0.9,0,2,0.1,2.6,0.3c0-0.3,0-2.1,0-2.4
				C235.9,79.9,234.9,79.8,233.7,79.8z"/>
			<path class="st1" d="M149.2,92.2c-0.6,2.1-1.3,4.4-2.2,7.3h0c-0.7-2.3-1.4-4.7-2.2-7.2l-2.3-7l0,0h-5l-2.3,7
				c-0.8,2.3-1.5,4.8-2.2,7.2h0c-0.9-2.9-1.6-5.3-2.2-7.3l-2.1-6.8l0,0H125l5.3,16.5l0,0h5l2.4-7.1c0.2-0.6,0.4-1.2,0.6-1.8
				c0.5-1.7,1.1-3.5,1.6-5.3h0c0.5,1.8,1.1,3.7,1.7,5.5c0.2,0.5,0.3,1.1,0.5,1.6l2.4,7.1l0,0h5l5.3-16.4l0-0.1h-3.6L149.2,92.2z"/>
			<path class="st1" d="M189,84.4c-3.3,0.3-5,2.3-6.1,4.3v-4.2H180v17.3h3.3v-9.1c0.1-1.7,0.7-3,1.9-4.1c1.2-1,2.6-1.5,4.4-1.5
				l1.6,0v-2.7l0,0C190.6,84.4,189.4,84.4,189,84.4z"/>
			<path class="st1" d="M173.2,86.6c-1.5-1.5-3.7-2.4-6.6-2.4c-5.9,0-9.3,3.5-9.3,9.3c0,2.6,0.8,4.7,2.4,6.2c1.6,1.5,4,2.4,6.9,2.4
				c2.2,0,4.1-0.5,5.6-1.4c1.4-0.8,2.5-1.9,3-3.4h-3.6c-0.9,1.6-2.8,2.5-5.2,2.5c-2.4,0-4.2-1.1-5.2-3c-0.4-0.8-0.7-1.8-0.8-2.7h15
				v-1C175.4,90.3,174.7,88.1,173.2,86.6z M160.5,91.8c0-0.3,0.1-0.7,0.2-1c0.7-2.8,2.7-4.3,5.8-4.3c4,0,5.4,2.8,5.5,5.3H160.5z"/>
			<path class="st1" d="M306.5,86.6c-1.5-1.5-3.7-2.4-6.6-2.4c-5.9,0-9.3,3.5-9.3,9.3c0,2.6,0.8,4.7,2.4,6.2c1.6,1.5,4,2.4,6.9,2.4
				c2.2,0,4.1-0.5,5.6-1.4c1.4-0.8,2.5-1.9,3-3.4h-3.6c-0.9,1.6-2.8,2.5-5.2,2.5c-2.4,0-4.2-1.1-5.2-3c-0.4-0.8-0.7-1.8-0.8-2.7
				c0,0,14.5,0,15,0c0-0.6,0-1.2-0.1-2.2C308.5,90.3,308.1,88.2,306.5,86.6z M293.8,91.8c0-0.3,0.1-0.7,0.2-1
				c0.7-2.8,2.7-4.3,5.8-4.3c4,0,5.4,2.8,5.5,5.3H293.8z"/>
			<path class="st1" d="M66.1,86.6c-1.5-1.5-3.7-2.4-6.6-2.4c-5.9,0-9.3,3.5-9.3,9.3c0,2.6,0.8,4.7,2.4,6.2c1.6,1.5,4,2.4,6.9,2.4
				c2.2,0,4.1-0.5,5.6-1.4c1.4-0.8,2.5-1.9,3-3.4h-3.6c-0.9,1.6-2.8,2.5-5.2,2.5c-2.4,0-4.2-1.1-5.2-3c-0.4-0.8-0.7-1.8-0.8-2.7h15
				v-1C68.4,90.3,67.6,88.1,66.1,86.6z M53.5,91.8c0-0.3,0.1-0.7,0.2-1c0.7-2.8,2.7-4.3,5.8-4.3c4,0,5.4,2.8,5.5,5.3H53.5z"/>
		</g>
	</g>
</g>
</svg>
