<?xml version="1.0" encoding="utf-8"?>
<!-- Generator: Adobe Illustrator 28.2.0, SVG Export Plug-In . SVG Version: 6.00 Build 0)  -->
<svg version="1.1" id="Layer_1" xmlns="http://www.w3.org/2000/svg" xmlns:xlink="http://www.w3.org/1999/xlink" x="0px" y="0px"
	 viewBox="0 0 385.5 100" style="enable-background:new 0 0 385.5 100;" xml:space="preserve">
<style type="text/css">
	.st0{fill:#25F4EE;}
	.st1{fill:#FE2C55;}
	.st2{fill:#FFFFFF;}
</style>
<g>
	<g>
		<g>
			<path class="st0" d="M34.5,40.4v-3.8c-1.2-0.2-2.5-0.3-3.8-0.3c-15.4,0-28,12.5-28,28c0,9.5,4.7,17.8,11.9,22.9
				c-0.1-0.1-0.3-0.3-0.4-0.4c-4.4-4.9-7-11.5-7-18.6C7.4,53,19.4,40.7,34.5,40.4z"/>
			<path class="st0" d="M35.2,81C42,81,47.8,75.4,48,68.6l0-60.8l11,0l0-0.1c-0.2-1.3-0.4-2.5-0.4-3.9H43.5l0,60.9
				c-0.3,6.8-5.9,12.3-12.7,12.3c-2.1,0-4.2-0.5-5.9-1.5C27.1,78.8,30.9,81,35.2,81z"/>
			<path class="st0" d="M79.8,28.7V25c-4.2,0-8.2-1.3-11.5-3.4C71.3,25,75.3,27.7,79.8,28.7z"/>
			<path class="st1" d="M68.3,21.6c-3.2-3.7-5.2-8.6-5.2-13.9h-4.2C60,13.5,63.6,18.5,68.3,21.6z"/>
			<path class="st1" d="M30.7,51.4c-7,0-12.9,5.8-12.9,12.9c0,4.9,2.9,9.2,7,11.3c-1.5-2.1-2.4-4.7-2.4-7.4c0-7,5.7-12.8,12.8-12.8
				c1.3,0,2.6,0.2,3.8,0.6V40.5c-1.2-0.2-2.5-0.3-3.8-0.3c-0.2,0-0.4,0-0.7,0l-0.1,0l0,11.7C33.2,51.6,32,51.4,30.7,51.4z"/>
			<path class="st1" d="M79.8,28.4L79.8,28.4l-0.1,11.7c-7.9,0-15.1-2.6-21.1-6.8l0,31c0,15.4-12.4,27.8-27.9,27.8
				c-6,0-11.5-1.8-16-5c5.1,5.5,12.4,8.9,20.5,8.9c15.4,0,28-12.5,28-28V37.3c6,4.3,13.3,6.8,21.1,6.8V28.9
				C82.7,28.9,81.3,28.7,79.8,28.4z"/>
			<path class="st2" d="M58.7,64.3V33.4c6,4.3,13.3,6.8,21.1,6.8V28.4c-4.6-1-8.6-3.4-11.5-6.8c-4.8-3.1-8.2-8.1-9.3-13.9H47.9
				l0,60.9c-0.3,6.8-5.9,12.3-12.7,12.3c-4.3,0-8-2.1-10.4-5.3c-4.1-2.1-6.8-6.4-6.8-11.3c0-7,5.7-12.8,12.8-12.8
				c1.3,0,2.6,0.2,3.8,0.6V40.2C19.4,40.6,7.2,53,7.2,68.1c0,7.4,2.9,14,7.5,19c4.5,3.2,10.1,5.1,16,5.1
				C46.2,92.3,58.7,79.7,58.7,64.3z"/>
		</g>
	</g>
	<g>
		<path class="st2" d="M99.3,28.5h47.5L142.4,42l-12.3,0v50.2h-15.3V42l-15.4,0L99.3,28.5z"/>
		<path class="st2" d="M224.5,28.5h48.6L268.7,42l-13.4,0v50.2H240V42l-15.4,0L224.5,28.5z"/>
		<polygon class="st2" points="149.7,48.7 164.9,48.7 164.9,92.2 149.7,92.2 		"/>
		<path class="st2" d="M170.9,28.3h15.2V58l15.1-14.8l18.1,0l-19.1,18.5l21.3,30.5h-16.7l-14.2-21.2l-4.5,4.4v16.8h-15.2V28.3z"/>
		<path class="st2" d="M332,28.3h15.2V58l15.1-14.8l18.1,0l-19.1,18.5l21.3,30.5h-16.7l-14.2-21.2l-4.5,4.4v16.8H332V28.3z"/>
		<circle class="st2" cx="157.3" cy="36.1" r="7.7"/>
		<path class="st0" d="M271.1,66.2c0-13.7,10.6-24.9,24-26c-0.7-0.1-1.6-0.1-2.3-0.1c-14.4,0-26,11.7-26,26c0,14.4,11.7,26,26,26
			c0.7,0,1.6,0,2.3-0.1C281.7,91.1,271.1,79.9,271.1,66.2z"/>
		<path class="st1" d="M301.1,40.2c-0.7,0-1.6,0-2.3,0.1c13.4,1,24,12.3,24,26c0,13.7-10.6,24.9-24,26c0.7,0.1,1.6,0.1,2.3,0.1
			c14.4,0,26-11.7,26-26C327.1,51.8,315.4,40.2,301.1,40.2z"/>
		<path class="st2" d="M296.9,40.2c-14.4,0-26,11.7-26,26c0,14.4,11.7,26,26,26s26-11.7,26-26C323,51.8,311.3,40.2,296.9,40.2z
			 M296.9,78.9c-7,0-12.7-5.7-12.7-12.7c0-7,5.7-12.7,12.7-12.7c7,0,12.7,5.7,12.7,12.7C309.6,73.2,303.9,78.9,296.9,78.9z"/>
	</g>
</g>
</svg>
