<?xml version="1.0" encoding="utf-8"?>
<!-- Generator: Adobe Illustrator 28.2.0, SVG Export Plug-In . SVG Version: 6.00 Build 0)  -->
<svg version="1.1" id="Layer_1" xmlns="http://www.w3.org/2000/svg" xmlns:xlink="http://www.w3.org/1999/xlink" x="0px" y="0px"
	 viewBox="0 0 385.5 118.2" style="enable-background:new 0 0 385.5 118.2;" xml:space="preserve">
<style type="text/css">
	.st0{fill:#25F4EE;}
	.st1{fill:#FE2C55;}
	.st2{fill:#FFFFFF;}
</style>
<g>
	<g>
		<g>
			<path class="st0" d="M34.5,49.5v-3.8c-1.2-0.2-2.5-0.3-3.8-0.3c-15.4,0-28,12.5-28,28c0,9.5,4.7,17.8,11.9,22.9
				c-0.1-0.1-0.3-0.3-0.4-0.4c-4.4-4.9-7-11.5-7-18.6C7.4,62.1,19.4,49.8,34.5,49.5z"/>
			<path class="st0" d="M35.2,90.1c6.8,0,12.6-5.6,12.8-12.4V16.9h11v-0.1c-0.2-1.3-0.4-2.5-0.4-3.9H43.5v60.9
				c-0.3,6.8-5.9,12.3-12.7,12.3c-2.1,0-4.2-0.5-5.9-1.5C27.1,87.9,30.9,90.1,35.2,90.1z"/>
			<path class="st0" d="M79.8,37.8v-3.7c-4.2,0-8.2-1.3-11.5-3.4C71.3,34.1,75.3,36.8,79.8,37.8z"/>
			<path class="st1" d="M68.3,30.7c-3.2-3.7-5.2-8.6-5.2-13.9h-4.2C60,22.6,63.6,27.6,68.3,30.7z"/>
			<path class="st1" d="M30.7,60.5c-7,0-12.9,5.8-12.9,12.9c0,4.9,2.9,9.2,7,11.3c-1.5-2.1-2.4-4.7-2.4-7.4c0-7,5.7-12.8,12.8-12.8
				c1.3,0,2.6,0.2,3.8,0.6V49.6c-1.2-0.2-2.5-0.3-3.8-0.3c-0.2,0-0.4,0-0.7,0h-0.1V61C33.2,60.7,32,60.5,30.7,60.5z"/>
			<path class="st1" d="M79.8,37.5L79.8,37.5l-0.1,11.7c-7.9,0-15.1-2.6-21.1-6.8v31c0,15.4-12.4,27.8-27.9,27.8c-6,0-11.5-1.8-16-5
				c5.1,5.5,12.4,8.9,20.5,8.9c15.4,0,28-12.5,28-28V46.4c6,4.3,13.3,6.8,21.1,6.8V38C82.7,38,81.3,37.8,79.8,37.5z"/>
			<path class="st2" d="M58.7,73.4V42.5c6,4.3,13.3,6.8,21.1,6.8V37.5c-4.6-1-8.6-3.4-11.5-6.8c-4.8-3.1-8.2-8.1-9.3-13.9H47.9v60.9
				C47.6,84.5,42,90,35.2,90c-4.3,0-8-2.1-10.4-5.3c-4.1-2.1-6.8-6.4-6.8-11.3c0-7,5.7-12.8,12.8-12.8c1.3,0,2.6,0.2,3.8,0.6V49.3
				C19.4,49.7,7.2,62.1,7.2,77.2c0,7.4,2.9,14,7.5,19c4.5,3.2,10.1,5.1,16,5.1C46.2,101.4,58.7,88.8,58.7,73.4z"/>
		</g>
	</g>
	<g>
		<path class="st2" d="M99.3,37.6h47.5l-4.4,13.5h-12.3v50.2h-15.3V51.1H99.4L99.3,37.6z"/>
		<path class="st2" d="M224.5,37.6h48.6l-4.4,13.5h-13.4v50.2H240V51.1h-15.4L224.5,37.6z"/>
		<polygon class="st2" points="149.7,57.8 164.9,57.8 164.9,101.3 149.7,101.3 		"/>
		<path class="st2" d="M170.9,37.4h15.2v29.7l15.1-14.8h18.1l-19.1,18.5l21.3,30.5h-16.7l-14.2-21.2l-4.5,4.4v16.8h-15.2L170.9,37.4
			L170.9,37.4z"/>
		<path class="st2" d="M332,37.4h15.2v29.7l15.1-14.8h18.1l-19.1,18.5l21.3,30.5h-16.7l-14.2-21.2l-4.5,4.4v16.8H332V37.4z"/>
		<circle class="st2" cx="157.3" cy="45.2" r="7.7"/>
		<path class="st0" d="M271.1,75.3c0-13.7,10.6-24.9,24-26c-0.7-0.1-1.6-0.1-2.3-0.1c-14.4,0-26,11.7-26,26c0,14.4,11.7,26,26,26
			c0.7,0,1.6,0,2.3-0.1C281.7,100.2,271.1,89,271.1,75.3z"/>
		<path class="st1" d="M301.1,49.3c-0.7,0-1.6,0-2.3,0.1c13.4,1,24,12.3,24,26s-10.6,24.9-24,26c0.7,0.1,1.6,0.1,2.3,0.1
			c14.4,0,26-11.7,26-26C327.1,60.9,315.4,49.3,301.1,49.3z"/>
		<path class="st2" d="M296.9,49.3c-14.4,0-26,11.7-26,26c0,14.4,11.7,26,26,26s26-11.7,26-26C323,60.9,311.3,49.3,296.9,49.3z
			 M296.9,88c-7,0-12.7-5.7-12.7-12.7s5.7-12.7,12.7-12.7s12.7,5.7,12.7,12.7C309.6,82.3,303.9,88,296.9,88z"/>
	</g>
</g>
</svg>
