<?xml version="1.0" encoding="utf-8"?>
<!-- Generator: Adobe Illustrator 28.2.0, SVG Export Plug-In . SVG Version: 6.00 Build 0)  -->
<svg version="1.1" id="Layer_1" xmlns="http://www.w3.org/2000/svg" xmlns:xlink="http://www.w3.org/1999/xlink" x="0px" y="0px"
	 viewBox="0 0 534 100" style="enable-background:new 0 0 534 100;" xml:space="preserve">
<style type="text/css">
	.st0{fill:#0766FF;}
</style>
<path class="st0" d="M461.4,94.1h17V66.6l23.7,27.5h20.8l-27.6-31.7l23.6-27.5h-18.9l-21.6,25.3v-56l-17,2.2V94.1z M422.1,33.4
	c-18.9,0-32,12.7-32,31.1s13.1,31.1,32,31.1c18.9,0,32-12.7,32-31.1S441,33.4,422.1,33.4L422.1,33.4z M422.1,81.2
	c-8.7,0-14.7-6.8-14.7-16.6s6-16.6,14.7-16.6c8.7,0,14.7,6.8,14.7,16.6S430.9,81.2,422.1,81.2z M353,33.4c-18.9,0-32,12.7-32,31.1
	s13.1,31.1,32,31.1c18.9,0,32-12.7,32-31.1S371.9,33.4,353,33.4L353,33.4z M353,81.2c-8.7,0-14.7-6.8-14.7-16.6s6-16.6,14.7-16.6
	c8.7,0,14.7,6.8,14.7,16.6S361.8,81.2,353,81.2z M287.9,33.4c-7.9,0-14.4,3.1-18.5,8.7V4.3l-17,2.2v87.6h15.1l0.3-9.1
	c4,6.8,11.2,10.7,20.1,10.7c16.1,0,28-13.1,28-31.1C315.9,46.5,304.1,33.4,287.9,33.4L287.9,33.4z M283.9,81.2
	c-8.7,0-14.7-6.8-14.7-16.6s6-16.6,14.7-16.6c8.7,0,14.7,6.8,14.7,16.6S292.6,81.2,283.9,81.2z M218.3,81.9c-9,0-15.5-4.2-17.7-11.4
	h41.9c0.4-2.2,0.7-4.8,0.7-6.6c0-19-10.7-30.5-28.6-30.5c-18.1,0-30.6,12.7-30.6,31.1c0,18.7,13.1,31.1,32.6,31.1
	c10.1,0,19.9-3.4,26-9l-6.1-10.8C230.6,80,224.7,81.9,218.3,81.9L218.3,81.9z M214.5,46.6c7.9,0,12.9,4.8,12.9,12.2v0.1h-27.2
	C201.9,51,207,46.6,214.5,46.6L214.5,46.6z M157.4,95.7c8.8,0,17.4-3.4,23.5-9.2l-6.6-11.2c-4.7,3.7-10.1,5.7-15.2,5.7
	c-9.4,0-15.7-6.6-15.7-16.4s6.3-16.4,15.7-16.4c4.7,0,9.7,1.7,13.9,4.7l6.8-11.4c-5.5-4.9-13.9-8-22.3-8
	c-18.5,0-31.5,12.9-31.5,31.1C125.9,82.7,138.9,95.7,157.4,95.7z M103.3,34.9l-0.3,9.2c-4-6.9-11.2-10.7-20.1-10.7
	c-16.2,0-28,13.1-28,31.1c0,18,11.8,31.1,28,31.1c8.9,0,16.1-3.8,20.1-10.7l0.3,9.1h15.1V34.9H103.3L103.3,34.9z M87,81.2
	c-8.7,0-14.7-6.8-14.7-16.6s6-16.6,14.7-16.6c8.7,0,14.7,6.8,14.7,16.6S95.7,81.2,87,81.2L87,81.2z M53.7,35.1H38.4V30
	c0-7.6,3-10.5,10.6-10.5c2.4,0,4.3,0.1,5.4,0.2v-13c-2.1-0.6-7.2-1.2-10.2-1.2c-15.6,0-22.9,7.4-22.9,23.3V35h-9.7v14.3h9.7v44.8h17
	V49.4h12.7L53.7,35.1z"/>
</svg>
