<?xml version="1.0" encoding="utf-8"?>
<!-- Generator: Adobe Illustrator 28.2.0, SVG Export Plug-In . SVG Version: 6.00 Build 0)  -->
<svg version="1.1" id="Layer_1" xmlns="http://www.w3.org/2000/svg" xmlns:xlink="http://www.w3.org/1999/xlink" x="0px" y="0px"
	 viewBox="0 0 1080 419.7" style="enable-background:new 0 0 1080 419.7;" xml:space="preserve">
<style type="text/css">
	.st0{fill:#FFFFFF;}
	.st1{clip-path:url(#SVGID_00000075135275324325972450000008054565538986497213_);fill:#EF233C;}
	.st2{clip-path:url(#SVGID_00000075135275324325972450000008054565538986497213_);fill:#FF941F;}
	.st3{clip-path:url(#SVGID_00000145038280408550419430000015964714380695293622_);fill:#0077B6;}
	.st4{clip-path:url(#SVGID_00000145038280408550419430000015964714380695293622_);fill:#06B3FF;}
</style>
<g>
	<g>
		<g>
			<path class="st0" d="M172.2,74.2H190v67.5h-17.7v-25.1h-38.4v25.1h-17.7V74.2h17.7v27.5h38.4V74.2z"/>
			<path class="st0" d="M241.7,89c4.4,0,8,0.4,11,1.1c3,0.7,5.3,1.9,7.1,3.5c1.8,1.6,3,3.7,3.8,6.2c0.8,2.5,1.2,5.6,1.2,9.1v12.7
				c0,3.5-0.4,6.6-1.2,9.1c-0.8,2.5-2,4.6-3.8,6.2c-1.8,1.6-4.1,2.8-7.1,3.5c-3,0.7-6.6,1.1-11,1.1h-17c-4.4,0-8-0.4-11-1.1
				c-3-0.7-5.3-1.9-7.1-3.5c-1.8-1.6-3.1-3.7-3.9-6.2c-0.8-2.5-1.2-5.6-1.2-9.1V109c0-3.5,0.4-6.6,1.2-9.1c0.8-2.5,2.1-4.6,3.9-6.2
				c1.8-1.6,4.2-2.8,7.1-3.5c3-0.7,6.6-1.1,11-1.1H241.7z M247,111.9c0-2-0.1-3.6-0.4-4.8c-0.3-1.2-0.8-2.2-1.5-2.8
				c-0.7-0.6-1.7-1.1-3-1.3c-1.3-0.2-2.9-0.3-4.9-0.3h-7.9c-2,0-3.6,0.1-4.9,0.3c-1.3,0.2-2.3,0.6-3,1.3c-0.7,0.6-1.2,1.6-1.5,2.8
				c-0.3,1.2-0.4,2.8-0.4,4.8v5.8c0,2,0.1,3.6,0.4,4.8c0.3,1.2,0.8,2.1,1.5,2.7c0.7,0.6,1.8,1.1,3,1.3c1.3,0.2,2.9,0.3,4.9,0.3h7.9
				c2,0,3.6,0,4.9-0.1c1.3-0.1,2.3-0.3,3-0.8c0.7-0.5,1.2-1.3,1.5-2.3c0.3-1.1,0.4-2.6,0.4-4.6V111.9z"/>
			<path class="st0" d="M313.2,89c4.4,0,8,0.4,11,1.1c3,0.7,5.3,1.9,7.1,3.5c1.8,1.6,3.1,3.7,3.8,6.2c0.7,2.5,1.1,5.6,1.1,9.1v32.7
				h-18v-28.6c0-2-0.1-3.6-0.4-4.8c-0.3-1.2-0.8-2.1-1.5-2.7c-0.7-0.6-1.7-1.1-3-1.3c-1.3-0.2-2.9-0.3-4.9-0.3h-14.6v37.7h-17.7V89
				H313.2z"/>
			<path class="st0" d="M407.1,63.4v78.3h-37c-4.4,0-8-0.4-11-1.1c-3-0.7-5.3-1.9-7.1-3.5c-1.8-1.6-3.1-3.7-3.9-6.2
				c-0.8-2.5-1.2-5.6-1.2-9.1V109c0-3.5,0.4-6.6,1.2-9.1c0.8-2.5,2.1-4.6,3.9-6.2c1.8-1.6,4.2-2.8,7.1-3.5c3-0.7,6.6-1.1,11-1.1
				h19.4V63.4H407.1z M389.5,104h-14.6c-2,0-3.6,0.1-4.9,0.3c-1.3,0.2-2.3,0.6-3,1.3c-0.7,0.6-1.2,1.6-1.5,2.7
				c-0.3,1.2-0.4,2.8-0.4,4.8v4.6c0,2,0.1,3.6,0.4,4.8c0.3,1.2,0.8,2.1,1.5,2.7c0.7,0.6,1.8,1.1,3,1.3c1.3,0.2,2.9,0.3,4.9,0.3h14.6
				V104z"/>
			<path class="st0" d="M451.6,89c4.4,0,8,0.4,11,1.1c3,0.7,5.3,1.9,7.1,3.5c1.8,1.6,3.1,3.7,3.8,6.2c0.7,2.5,1.1,5.6,1.1,9.1v32.7
				H434c-3,0-5.6-0.2-7.7-0.6c-2.1-0.4-3.8-1.2-5.1-2.2c-1.3-1.1-2.3-2.5-2.9-4.3c-0.6-1.8-0.9-4.1-0.9-6.9c0-2.5,0.2-4.7,0.5-6.7
				c0.3-1.9,1-3.6,1.9-4.9c1-1.3,2.3-2.4,4-3.2c1.7-0.8,3.9-1.4,6.7-1.7l25.8-2.7c-0.1-1.2-0.4-2.2-0.8-2.9c-0.4-0.7-1-1.3-1.7-1.7
				c-0.7-0.4-1.7-0.7-2.8-0.8c-1.2-0.1-2.6-0.2-4.2-0.2h-24.3V89H451.6z M456.6,120.6l-15.9,1.3c-1.9,0.2-3.2,0.5-3.9,0.9
				c-0.7,0.4-1,1.3-1,2.6c0.1,1.2,0.4,2,1.1,2.3c0.7,0.3,2.2,0.4,4.5,0.4h15.2V120.6z"/>
		</g>
		<g>
			<path class="st0" d="M651.2,336.7v4l53.5,0.3v14.9h-71.3v-22.2c0-1.9,0.2-3.6,0.7-5.3c0.4-1.7,1.2-3.2,2.3-4.5
				c1.1-1.3,2.5-2.5,4.3-3.5c1.8-1,4.1-1.7,6.8-2.1l27.7-4.4c2.4-0.4,4.4-0.8,5.8-1.2c1.4-0.4,2.5-0.9,3.2-1.3
				c0.7-0.5,1.2-1,1.3-1.6c0.2-0.6,0.3-1.3,0.3-2.2c0-0.8-0.1-1.4-0.4-2c-0.3-0.5-0.8-1-1.5-1.3c-0.7-0.3-1.7-0.6-3-0.7
				c-1.3-0.2-2.9-0.2-5-0.2h-40.1v-14.9h44.6c4.4,0,8,0.4,11,1.1c3,0.7,5.3,1.9,7.1,3.5c1.8,1.6,3.1,3.7,3.9,6.2
				c0.8,2.5,1.2,5.6,1.2,9.1v2.2c0,1.9-0.2,3.6-0.7,5.3c-0.5,1.7-1.2,3.2-2.3,4.5c-1.1,1.3-2.5,2.5-4.3,3.5c-1.8,1-4.1,1.7-6.8,2.1
				l-27.7,4.4c-2.5,0.4-4.5,0.8-5.9,1.2c-1.4,0.4-2.5,0.9-3.2,1.3c-0.7,0.5-1.1,1-1.3,1.6C651.2,335.3,651.2,336,651.2,336.7z"/>
			<path class="st0" d="M765.4,288.4c8.7,0,15.2,2,19.3,5.9c4.1,3.9,6.2,9.4,6.2,16.5v22.8c0,7.1-2.1,12.6-6.2,16.5
				c-4.1,3.9-10.5,5.9-19.3,5.9h-24.3c-8.8,0-15.3-1.9-19.4-5.8c-4.1-3.9-6.2-9.4-6.2-16.5v-22.8c0-7.1,2.1-12.6,6.2-16.5
				s10.6-5.8,19.4-5.8H765.4z M773.2,314.9c0-4-1-7-3.1-8.8c-2.1-1.8-5.1-2.7-9.2-2.7h-15.4c-4,0-7.1,0.9-9.2,2.7
				c-2.1,1.8-3.1,4.8-3.1,8.8v14.7c0,4.1,1,7,3.1,8.8s5.1,2.7,9.2,2.7H761c4,0,7.1-0.9,9.2-2.7c2.1-1.8,3.1-4.8,3.1-8.8V314.9z"/>
			<path class="st0" d="M820.3,336.7v4l53.5,0.3v14.9h-71.3v-22.2c0-1.9,0.2-3.6,0.7-5.3c0.4-1.7,1.2-3.2,2.3-4.5
				c1.1-1.3,2.5-2.5,4.3-3.5c1.8-1,4.1-1.7,6.8-2.1l27.7-4.4c2.4-0.4,4.4-0.8,5.8-1.2c1.4-0.4,2.5-0.9,3.2-1.3s1.2-1,1.3-1.6
				c0.2-0.6,0.3-1.3,0.3-2.2c0-0.8-0.1-1.4-0.4-2c-0.3-0.5-0.8-1-1.5-1.3c-0.7-0.3-1.7-0.6-3-0.7c-1.3-0.2-2.9-0.2-5-0.2H805v-14.9
				h44.6c4.4,0,8,0.4,11,1.1c3,0.7,5.3,1.9,7.1,3.5c1.8,1.6,3.1,3.7,3.9,6.2c0.8,2.5,1.2,5.6,1.2,9.1v2.2c0,1.9-0.2,3.6-0.7,5.3
				c-0.5,1.7-1.2,3.2-2.3,4.5s-2.5,2.5-4.3,3.5c-1.8,1-4.1,1.7-6.8,2.1l-27.7,4.4c-2.5,0.4-4.5,0.8-5.9,1.2
				c-1.4,0.4-2.5,0.9-3.2,1.3c-0.7,0.5-1.1,1-1.3,1.6C820.4,335.3,820.3,336,820.3,336.7z"/>
			<path class="st0" d="M941,314.8c3.4,0,6.4,0.6,9,1.8c2.6,1.2,4.7,2.8,6.5,4.7c1.8,2,3.1,4.2,4.1,6.6c0.9,2.4,1.5,5,1.6,7.5
				c0.1,2.6-0.2,5.1-0.9,7.6c-0.7,2.5-1.9,4.7-3.4,6.6c-1.5,1.9-3.5,3.4-5.9,4.6c-2.4,1.2-5.2,1.8-8.4,1.8h-58.1v-14.9H938
				c2.1,0,3.6-0.6,4.6-1.8c1-1.2,1.5-2.5,1.5-4c0-1.4-0.5-2.8-1.5-4c-1-1.2-2.5-1.8-4.5-1.8h-51.2l2.2-41.2h66.3v14.9h-49.5
				l-0.7,11.5H941z"/>
		</g>
	</g>
	<g>
		<defs>
			<path id="SVGID_1_" d="M271.2,155h30.8v117.2h-30.8V155z M333.7,165.1c-7.1,6.8-10.7,16.3-10.7,28.7v39.5
				c0,12.4,3.6,22,10.7,28.7c7.1,6.8,18.4,10.1,33.7,10.1h80.6v-69.5h-64.2v26h33.5v17.6h-42.2c-7,0-12.3-1.6-15.9-4.7
				c-3.6-3.1-5.4-8.2-5.4-15.2v-25.5c0-7,1.8-12.1,5.4-15.3c3.6-3.2,8.9-4.8,15.9-4.8h72.9V155h-80.6
				C352.1,155,340.9,158.4,333.7,165.1z M470.6,272.2h30.8V155h-30.8V272.2z M147,215.4h-30.8v30.8H147V215.4z M96,213.6h18.4v-18.4
				H96V213.6z M86.8,258.1h18.4v-18.4H86.8V258.1z M205.7,155h-89.6v25.8H147h8.4H198c7,0,12.4,1.6,16,4.8c3.6,3.2,5.4,8.3,5.4,15.3
				v25.5c0,7-1.8,12.1-5.4,15.2c-3.6,3.1-9,4.7-16,4.7h-42.7H147v26h58.8c15.3,0,26.5-3.4,33.7-10.1c7.1-6.8,10.7-16.3,10.7-28.7
				v-39.5c0-12.4-3.6-22-10.7-28.7C232.3,158.4,221,155,205.7,155z"/>
		</defs>
		<clipPath id="SVGID_00000138544162137627131210000017060188686525720464_">
			<use xlink:href="#SVGID_1_"  style="overflow:visible;"/>
		</clipPath>
		
			<rect x="86.8" y="155" style="clip-path:url(#SVGID_00000138544162137627131210000017060188686525720464_);fill:#EF233C;" width="414.6" height="117.2"/>
		
			<rect x="78.4" y="234.1" style="clip-path:url(#SVGID_00000138544162137627131210000017060188686525720464_);fill:#FF941F;" width="16.8" height="16.8"/>
		
			<rect x="130.2" y="229.5" style="clip-path:url(#SVGID_00000138544162137627131210000017060188686525720464_);fill:#FF941F;" width="16.8" height="16.8"/>
		
			<rect x="132.8" y="171.2" style="clip-path:url(#SVGID_00000138544162137627131210000017060188686525720464_);fill:#FF941F;" width="16.8" height="16.8"/>
		
			<rect x="149.6" y="171.2" style="clip-path:url(#SVGID_00000138544162137627131210000017060188686525720464_);fill:#FF941F;" width="16.8" height="16.8"/>
		
			<rect x="183.1" y="171.2" style="clip-path:url(#SVGID_00000138544162137627131210000017060188686525720464_);fill:#FF941F;" width="16.8" height="16.8"/>
		
			<rect x="149.6" y="154.5" style="clip-path:url(#SVGID_00000138544162137627131210000017060188686525720464_);fill:#FF941F;" width="16.8" height="16.8"/>
		
			<rect x="166.3" y="154.5" style="clip-path:url(#SVGID_00000138544162137627131210000017060188686525720464_);fill:#FF941F;" width="16.8" height="16.8"/>
		
			<rect x="107.7" y="207.1" style="clip-path:url(#SVGID_00000138544162137627131210000017060188686525720464_);fill:#FF941F;" width="16.8" height="16.8"/>
		
			<rect x="116.1" y="154.9" style="clip-path:url(#SVGID_00000138544162137627131210000017060188686525720464_);fill:#FF941F;" width="16.8" height="16.8"/>
		
			<rect x="178.2" y="258.2" style="clip-path:url(#SVGID_00000138544162137627131210000017060188686525720464_);fill:#FF941F;" width="16.8" height="16.8"/>
		
			<rect x="144.7" y="258.2" style="clip-path:url(#SVGID_00000138544162137627131210000017060188686525720464_);fill:#FF941F;" width="16.8" height="16.8"/>
		
			<rect x="161.4" y="241.5" style="clip-path:url(#SVGID_00000138544162137627131210000017060188686525720464_);fill:#FF941F;" width="16.8" height="16.8"/>
		
			<rect x="195" y="258.2" style="clip-path:url(#SVGID_00000138544162137627131210000017060188686525720464_);fill:#FF941F;" width="16.8" height="16.8"/>
		
			<rect x="195" y="241.5" style="clip-path:url(#SVGID_00000138544162137627131210000017060188686525720464_);fill:#FF941F;" width="16.8" height="16.8"/>
		
			<rect x="195" y="224.7" style="clip-path:url(#SVGID_00000138544162137627131210000017060188686525720464_);fill:#FF941F;" width="16.8" height="16.8"/>
		
			<rect x="211.8" y="241.5" style="clip-path:url(#SVGID_00000138544162137627131210000017060188686525720464_);fill:#FF941F;" width="16.8" height="16.8"/>
		
			<rect x="211.8" y="224.7" style="clip-path:url(#SVGID_00000138544162137627131210000017060188686525720464_);fill:#FF941F;" width="16.8" height="16.8"/>
		
			<rect x="228.6" y="241.5" style="clip-path:url(#SVGID_00000138544162137627131210000017060188686525720464_);fill:#FF941F;" width="16.8" height="16.8"/>
		
			<rect x="261.6" y="256.2" style="clip-path:url(#SVGID_00000138544162137627131210000017060188686525720464_);fill:#FF941F;" width="16.8" height="16.8"/>
		
			<rect x="228.6" y="207.9" style="clip-path:url(#SVGID_00000138544162137627131210000017060188686525720464_);fill:#FF941F;" width="16.8" height="16.8"/>
		
			<rect x="278.4" y="239.4" style="clip-path:url(#SVGID_00000138544162137627131210000017060188686525720464_);fill:#FF941F;" width="16.8" height="16.8"/>
		
			<rect x="295.2" y="222.6" style="clip-path:url(#SVGID_00000138544162137627131210000017060188686525720464_);fill:#FF941F;" width="16.8" height="16.8"/>
	</g>
	<g>
		<defs>
			<path id="SVGID_00000080889499429653981860000005027570184969874609_" d="M533,165.1c-7.1,6.8-10.7,16.3-10.7,28.7v39.5
				c0,12.4,3.6,22,10.7,28.7c7.1,6.8,18.4,10.1,33.7,10.1h80.6v-26h-72.9c-7,0-12.3-1.6-15.9-4.7c-3.6-3.1-5.4-8.2-5.4-15.2v-25.5
				c0-7,1.8-12.1,5.4-15.3c3.6-3.2,8.9-4.8,15.9-4.8h72.9V155h-80.6C551.4,155,540.2,158.4,533,165.1z M786.8,165.2
				c-7.1-6.8-18.3-10.2-33.5-10.2h-45.7c-15.3,0-26.5,3.4-33.7,10.1c-7.1,6.8-10.7,16.3-10.7,28.7v39.5c0,12.4,3.6,22,10.7,28.7
				c7.1,6.8,18.4,10.1,33.7,10.1h45.7c15.2,0,26.4-3.4,33.5-10.2c7.1-6.8,10.7-16.4,10.7-28.6v-39.5
				C797.5,181.6,793.9,172,786.8,165.2z M766.8,226.3c0,7-1.8,12.1-5.4,15.3c-3.6,3.2-8.9,4.8-15.9,4.8h-30.3
				c-7,0-12.3-1.6-15.9-4.8c-3.6-3.2-5.4-8.3-5.4-15.3v-25.5c0-7,1.8-12.1,5.4-15.3c3.6-3.2,8.9-4.8,15.9-4.8h30.3
				c7,0,12.3,1.6,15.9,4.8c3.6,3.2,5.4,8.3,5.4,15.3V226.3z M924.6,245.8l-42.5-60.3c-5.1-7.8-9.2-13.8-12.2-17.9
				c-3-4.1-5.6-7.1-7.7-9c-2.1-1.8-4-2.9-5.8-3.2c-1.7-0.3-3.9-0.4-6.6-0.4h-31.2v117.2h30.8V192l32,49.7
				c4.4,6.5,8.3,11.7,11.7,15.7c3.5,4,6.8,7.1,10.1,9.3c3.2,2.2,6.5,3.6,9.9,4.4c3.4,0.7,7.1,1.1,11.2,1.1h31.2v-75.1h-30.8V245.8z
				 M955.2,197.1H986v-30.8h-30.8V197.1z M953.4,146.2H935v18.4h18.4V146.2z M979.5,137v18.4h18.4V137H979.5z"/>
		</defs>
		<clipPath id="SVGID_00000046298473371828012080000008509272820828823943_">
			<use xlink:href="#SVGID_00000080889499429653981860000005027570184969874609_"  style="overflow:visible;"/>
		</clipPath>
		
			<rect x="522.6" y="137.6" style="clip-path:url(#SVGID_00000046298473371828012080000008509272820828823943_);fill:#0077B6;" width="475.5" height="135.2"/>
		
			<rect x="891" y="230.7" style="clip-path:url(#SVGID_00000046298473371828012080000008509272820828823943_);fill:#06B3FF;" width="16.4" height="16.4"/>
		
			<rect x="818.5" y="154.8" style="clip-path:url(#SVGID_00000046298473371828012080000008509272820828823943_);fill:#06B3FF;" width="16.4" height="16.4"/>
		
			<rect x="834.8" y="171.1" style="clip-path:url(#SVGID_00000046298473371828012080000008509272820828823943_);fill:#06B3FF;" width="16.4" height="16.4"/>
		
			<rect x="851.2" y="154.8" style="clip-path:url(#SVGID_00000046298473371828012080000008509272820828823943_);fill:#06B3FF;" width="16.4" height="16.4"/>
		
			<rect x="867.5" y="171.1" style="clip-path:url(#SVGID_00000046298473371828012080000008509272820828823943_);fill:#06B3FF;" width="16.4" height="16.4"/>
		
			<rect x="867.5" y="187.4" style="clip-path:url(#SVGID_00000046298473371828012080000008509272820828823943_);fill:#06B3FF;" width="16.4" height="16.4"/>
		
			<rect x="884" y="203.7" style="clip-path:url(#SVGID_00000046298473371828012080000008509272820828823943_);fill:#06B3FF;" width="16.4" height="16.4"/>
		
			<rect x="851" y="203.9" style="clip-path:url(#SVGID_00000046298473371828012080000008509272820828823943_);fill:#06B3FF;" width="16.4" height="16.4"/>
		
			<rect x="945.1" y="141.1" style="clip-path:url(#SVGID_00000046298473371828012080000008509272820828823943_);fill:#06B3FF;" width="16.4" height="16.4"/>
		
			<rect x="975.3" y="143.1" style="clip-path:url(#SVGID_00000046298473371828012080000008509272820828823943_);fill:#06B3FF;" width="16.4" height="16.4"/>
		
			<rect x="923.7" y="262.8" style="clip-path:url(#SVGID_00000046298473371828012080000008509272820828823943_);fill:#06B3FF;" width="16.4" height="16.4"/>
		
			<rect x="939.9" y="230" style="clip-path:url(#SVGID_00000046298473371828012080000008509272820828823943_);fill:#06B3FF;" width="16.4" height="16.4"/>
		
			<rect x="924.5" y="230" style="clip-path:url(#SVGID_00000046298473371828012080000008509272820828823943_);fill:#06B3FF;" width="16.4" height="16.4"/>
		
			<rect x="874.5" y="247.1" style="clip-path:url(#SVGID_00000046298473371828012080000008509272820828823943_);fill:#06B3FF;" width="16.4" height="16.4"/>
		
			<rect x="891" y="263.1" style="clip-path:url(#SVGID_00000046298473371828012080000008509272820828823943_);fill:#06B3FF;" width="16.4" height="16.4"/>
		
			<rect x="907.3" y="263.4" style="clip-path:url(#SVGID_00000046298473371828012080000008509272820828823943_);fill:#06B3FF;" width="16.4" height="16.4"/>
		
			<rect x="907.4" y="247" style="clip-path:url(#SVGID_00000046298473371828012080000008509272820828823943_);fill:#06B3FF;" width="16.4" height="16.4"/>
		
			<rect x="923.8" y="197.1" style="clip-path:url(#SVGID_00000046298473371828012080000008509272820828823943_);fill:#06B3FF;" width="16.4" height="16.4"/>
		
			<rect x="955.1" y="180.7" style="clip-path:url(#SVGID_00000046298473371828012080000008509272820828823943_);fill:#06B3FF;" width="16.4" height="16.4"/>
		
			<rect x="940.1" y="246.4" style="clip-path:url(#SVGID_00000046298473371828012080000008509272820828823943_);fill:#06B3FF;" width="16.4" height="16.4"/>
		
			<rect x="940.3" y="213.6" style="clip-path:url(#SVGID_00000046298473371828012080000008509272820828823943_);fill:#06B3FF;" width="16.4" height="16.4"/>
	</g>
</g>
</svg>
