<?xml version="1.0" encoding="utf-8"?>
<!-- Generator: Adobe Illustrator 28.2.0, SVG Export Plug-In . SVG Version: 6.00 Build 0)  -->
<svg version="1.1" id="Layer_1" xmlns="http://www.w3.org/2000/svg" xmlns:xlink="http://www.w3.org/1999/xlink" x="0px" y="0px"
	 viewBox="0 0 743.33 310.67" style="enable-background:new 0 0 743.33 310.67;" xml:space="preserve">
<style type="text/css">
	.st0{fill:#FFFFFF;}
	.st1{fill:#ED1C24;}
</style>
<g>
	<g>
		<g>
			<g>
				<path class="st0" d="M462.1,220.56c-4.18,0-7.91-0.56-11.19-1.69c-3.28-1.12-6.22-2.7-8.82-4.72l3.5-8.25
					c2.38,1.85,4.9,3.3,7.56,4.36c2.66,1.06,5.71,1.59,9.15,1.59c2.77,0,4.87-0.57,6.27-1.72c1.41-1.15,2.11-2.66,2.11-4.56
					c0-2.2-0.77-3.76-2.31-4.69c-1.54-0.92-4.32-1.89-8.32-2.91c-6.16-1.5-10.45-3.39-12.84-5.68c-2.4-2.29-3.6-5.61-3.6-9.97
					c0-4.62,1.56-8.4,4.69-11.33c3.13-2.93,7.64-4.39,13.54-4.39c3.34,0,6.65,0.58,9.91,1.74c3.26,1.16,5.94,2.62,8.06,4.38
					l-3.04,7.9c-2.38-1.68-4.78-2.99-7.2-3.91c-2.42-0.93-4.95-1.39-7.59-1.39c-2.33,0-4.12,0.48-5.35,1.43
					c-1.23,0.95-1.85,2.38-1.85,4.28c0,1.86,0.72,3.32,2.15,4.38c1.43,1.06,4.37,2.14,8.82,3.25c6.03,1.41,10.24,3.29,12.61,5.65
					c2.38,2.36,3.57,5.8,3.57,10.34c0,5.11-1.83,9.04-5.48,11.79C472.77,219.18,467.99,220.56,462.1,220.56z"/>
				<path class="st0" d="M508.46,220.62c-6.43,0-11.17-1.55-14.23-4.66c-3.06-3.1-4.59-7.87-4.59-14.3v-34.54h11.23v34.08
					c0,3.87,0.58,6.55,1.75,8.02c1.17,1.48,3.11,2.21,5.84,2.21c2.73,0,4.68-0.74,5.84-2.21c1.17-1.47,1.75-4.15,1.75-8.02v-34.08
					h11.23v34.54c0,6.43-1.53,11.19-4.59,14.3C519.63,219.07,514.88,220.62,508.46,220.62z"/>
				<path class="st0" d="M597.08,204.44l-7.2-20.74l1.06,36.26h-9.91v-52.83h11.23l8.85,26.61l8.78-26.61h10.9v52.83h-9.84
					l0.92-35.99l-7.07,20.47H597.08z"/>
				<path class="st0" d="M628.32,219.96v-8.72h13.21v-35.4h-13.21v-8.72h37.64v8.72h-13.21v35.4h13.21v8.72H628.32z"/>
				<path class="st0" d="M687.75,219.96v-44.12h-15.12v-8.72h41.47v8.72h-15.12v44.12H687.75z"/>
				<g>
					<path class="st0" d="M564.85,219.96c0-9.48,0-18.93,0-28.41c-1.35,0-2.68,0-4.06,0c0,4.03,0,8.08,0,12.15
						c-4.08,0-8.12,0-12.2,0c0-4.04,0-8.08,0-12.15c-1.38,0-2.71,0-4.07,0c0,9.47,0,18.93,0,28.42c-2.72,0-5.41,0-8.12,0
						c0-17.6,0-35.21,0-52.83c2.69,0,5.37,0,8.09,0c0,1.33,0,2.66,0,4.03c1.37,0,2.69,0,4.06,0c0,4.08,0,8.12,0,12.21
						c1.38,0,2.71,0,4.08,0c0,2.72,0,5.4,0,8.11c1.36,0,2.7,0,4.07,0c0-4.04,0-8.08,0-12.16c1.37,0,2.69,0,4.06,0
						c0-4.08,0-8.12,0-12.19c4.09,0,8.14,0,12.2,0c0,17.61,0,35.2,0,52.83C570.28,219.96,567.59,219.96,564.85,219.96z"/>
				</g>
			</g>
			<g>
				<path class="st0" d="M139.82,220.03v-8.72h13.21v-35.4h-13.21v-8.72h37.64v8.72h-13.21v35.4h13.21v8.72H139.82z"/>
				<path class="st0" d="M205.34,220.69c-6.3,0-11.15-1.6-14.56-4.79c-3.41-3.19-5.12-7.76-5.12-13.7v-16.91
					c0-6.03,1.67-10.67,5.02-13.9c3.35-3.24,8.17-4.85,14.46-4.85c6.12,0,10.73,1.42,13.84,4.26s4.81,6.95,5.12,12.32l-11.23,0.66
					c-0.26-3.17-0.97-5.38-2.11-6.64c-1.15-1.25-2.99-1.88-5.55-1.88c-3.04,0-5.18,0.8-6.44,2.41c-1.25,1.61-1.88,4.46-1.88,8.55
					v15.06c0,3.96,0.63,6.74,1.88,8.32c1.25,1.59,3.42,2.38,6.51,2.38c2.99,0,5.08-0.8,6.27-2.41c1.19-1.61,1.76-4.46,1.72-8.55
					h-8.39v-8.72h19.61V202c0,6.03-1.65,10.66-4.95,13.87C216.23,219.08,211.5,220.69,205.34,220.69z"/>
				<path class="st0" d="M232.28,220.03v-8.72h13.21v-35.4h-13.21v-8.72h37.64v8.72h-13.21v35.4h13.21v8.72H232.28z"/>
				<path class="st0" d="M291.72,220.03v-44.12h-15.12v-8.72h41.47v8.72h-15.12v44.12H291.72z"/>
				<path class="st0" d="M374.27,220.03V167.2h11.23v44.12h23.11v8.72H374.27z"/>
				<g>
					<path class="st0" d="M93.76,220.03c0-17.63,0-35.23,0-52.85c8.12,0,16.23,0,24.38,0c0,1.33,0,2.66,0,4.04c2.74,0,5.42,0,8.15,0
						c0,2.73,0,5.4,0,8.13c1.36,0,2.7,0,4.06,0c0,9.52,0,18.99,0,28.49c-1.34,0-2.66,0-4.03,0c0,2.72,0,5.41,0,8.15
						c-2.74,0-5.42,0-8.15,0c0,1.37,0,2.69,0,4.04C110.02,220.03,101.91,220.03,93.76,220.03z M105.98,175.31
						c0,12.22,0,24.4,0,36.58c2.72,0,5.41,0,8.13,0c0-1.36,0-2.68,0-4.05c1.36,0,2.7,0,4.03,0c0-9.52,0-18.98,0-28.5
						c-1.36,0-2.69,0-4.06,0c0-1.37,0-2.69,0-4.03C111.36,175.31,108.68,175.31,105.98,175.31z"/>
				</g>
				<g>
					<path class="st0" d="M324.72,199.71c1.4,0,2.72,0,4.07,0c0-5.42,0-10.81,0-16.25c1.36,0,2.7,0,4.07,0c0-4.09,0-8.13,0-12.21
						c1.37,0,2.69,0,4.06,0c0-1.36,0-2.7,0-4.05c4.09,0,8.13,0,12.21,0c0,1.34,0,2.66,0,4.03c1.36,0,2.7,0,4.06,0
						c0,5.44,0,10.83,0,16.26c1.36,0,2.69,0,4.07,0c0,4.09,0,8.13,0,12.21c1.37,0,2.69,0,4.06,0c0,5.43,0,10.83,0,16.28
						c1.38,0,2.71,0,4.07,0c0,1.37,0,2.69,0,4.05c-4.03,0-8.08,0-12.17,0c0-4.03,0-8.08,0-12.15c-6.8,0-13.56,0-20.35,0
						c0,4.05,0,8.09,0,12.15c-4.08,0-8.12,0-12.19,0c0-2.69,0-5.38,0-8.1c1.34,0,2.66,0,4.03,0
						C324.72,207.86,324.72,203.81,324.72,199.71z M336.96,199.69c2.72,0,5.41,0,8.14,0c0-1.36,0-2.69,0-4.06c1.37,0,2.69,0,4.02,0
						c0-1.36,0-2.7,0-4.07c-1.36,0-2.69,0-4.05,0c0-4.08,0-8.11,0-12.15c-1.36,0-2.69,0-4.07,0c0,4.07,0,8.11,0,12.19
						c-1.37,0-2.69,0-4.03,0C336.96,194.3,336.96,196.98,336.96,199.69z"/>
				</g>
			</g>
		</g>
		<g>
			<path class="st0" d="M93.76,269.02v-7.66c0-2.9,0.63-5.16,1.88-6.76c1.25-1.61,3.52-3.03,6.79-4.29l4.95-1.83
				c1.65-0.61,2.87-1.22,3.65-1.81c0.78-0.6,1.17-1.66,1.17-3.19v-1.05c0-1.8-0.4-3.06-1.19-3.76c-0.8-0.7-2.09-1.05-3.9-1.05
				c-1.74,0-2.98,0.41-3.71,1.24c-0.73,0.83-1.19,2.49-1.38,5l-7.8-0.46c0.24-4.1,1.36-7.04,3.35-8.83
				c1.99-1.79,5.15-2.68,9.49-2.68c4.46,0,7.73,0.89,9.81,2.68c2.08,1.79,3.12,4.38,3.12,7.77v2.16c0,2.66-0.77,4.68-2.32,6.05
				c-1.54,1.38-3.6,2.54-6.17,3.49l-5,1.83c-2.05,0.83-3.39,1.54-4.01,2.16c-0.63,0.61-0.94,1.7-0.94,3.26v1.7h18.89v6.05H93.76z"/>
			<path class="st0" d="M136.68,269.48c-4.28,0-7.57-1.32-9.88-3.97c-2.31-2.64-3.46-6.41-3.46-11.3v-6.88
				c0-4.95,1.16-8.77,3.49-11.44c2.32-2.67,5.62-4.01,9.9-4.01c4.28,0,7.57,1.34,9.86,4.01c2.29,2.68,3.44,6.49,3.44,11.44v6.88
				c0,4.89-1.15,8.66-3.46,11.3C144.25,268.15,140.96,269.48,136.68,269.48z M136.68,263.74c2.26,0,3.86-0.76,4.79-2.29
				c0.93-1.53,1.4-4.16,1.4-7.89v-5.59c0-3.79-0.47-6.47-1.4-8.02c-0.93-1.56-2.53-2.34-4.79-2.34c-2.26,0-3.86,0.78-4.79,2.34
				c-0.93,1.56-1.4,4.23-1.4,8.02v5.59c0,3.73,0.47,6.36,1.4,7.89C132.82,262.98,134.42,263.74,136.68,263.74z"/>
			<path class="st0" d="M152.91,269.02v-7.66c0-2.9,0.63-5.16,1.88-6.76c1.25-1.61,3.52-3.03,6.79-4.29l4.95-1.83
				c1.65-0.61,2.87-1.22,3.65-1.81c0.78-0.6,1.17-1.66,1.17-3.19v-1.05c0-1.8-0.4-3.06-1.19-3.76c-0.8-0.7-2.09-1.05-3.9-1.05
				c-1.74,0-2.98,0.41-3.71,1.24c-0.73,0.83-1.19,2.49-1.38,5l-7.8-0.46c0.24-4.1,1.36-7.04,3.35-8.83
				c1.99-1.79,5.15-2.68,9.49-2.68c4.46,0,7.73,0.89,9.81,2.68c2.08,1.79,3.12,4.38,3.12,7.77v2.16c0,2.66-0.77,4.68-2.32,6.05
				c-1.54,1.38-3.6,2.54-6.17,3.49l-5,1.83c-2.05,0.83-3.39,1.54-4.01,2.16c-0.63,0.61-0.94,1.7-0.94,3.26v1.7h18.89v6.05H152.91z"
				/>
			<path class="st0" d="M195.79,269.48c-4.86,0-8.32-0.84-10.36-2.52c-2.05-1.68-3.18-4.69-3.39-9.03l7.8-0.46
				c0.24,2.6,0.77,4.3,1.58,5.09c0.81,0.8,2.28,1.19,4.43,1.19c2.17,0,3.64-0.45,4.4-1.36c0.76-0.91,1.15-2.32,1.15-4.26v-1.56
				c0-1.84-0.4-3.18-1.19-4.03c-0.8-0.84-2.37-1.27-4.72-1.27h-12.06v-18.94h24.26v5.73H191.2v7.15h6.56c3.79,0,6.64,0.83,8.55,2.5
				c1.91,1.67,2.87,4.21,2.87,7.64v3.9c0,2.93-1.08,5.37-3.23,7.31C203.79,268.51,200.4,269.48,195.79,269.48z"/>
		</g>
		<g>
			<path class="st0" d="M93.38,153.31v-53.02h11.27v19.35h15.24v-19.35h11.27v53.02h-11.27v-24.92h-15.24v24.92H93.38z"/>
			<path class="st0" d="M158.66,153.97c-5.79,0-10.31-1.33-13.55-3.98c-3.25-2.65-4.87-6.34-4.87-11.07v-10.74
				c0-4.82,1.62-8.57,4.87-11.27c3.25-2.69,7.79-4.04,13.62-4.04c5.79,0,10.29,1.37,13.52,4.11c3.22,2.74,4.84,6.54,4.84,11.4v10.74
				c0,4.68-1.62,8.33-4.87,10.94C168.97,152.67,164.45,153.97,158.66,153.97z M158.66,145.69c2.47,0,4.29-0.57,5.43-1.72
				c1.15-1.15,1.72-2.98,1.72-5.5v-9.88c0-2.56-0.57-4.44-1.72-5.63c-1.15-1.19-2.96-1.79-5.43-1.79c-2.48,0-4.29,0.6-5.43,1.79
				c-1.15,1.19-1.72,3.05-1.72,5.57v9.68c0,2.61,0.57,4.51,1.72,5.7C154.37,145.09,156.19,145.69,158.66,145.69z"/>
			<path class="st0" d="M186.63,153.31v-39.77h11.27v7.09h1.99c1.02-2.43,2.63-4.33,4.84-5.7c2.21-1.37,4.75-2.05,7.62-2.05
				c3.49,0,6.22,1.11,8.19,3.31c1.97,2.21,2.95,5.26,2.95,9.15v27.97h-11.27v-25.97c0-1.86-0.44-3.28-1.33-4.25
				c-0.88-0.97-2.14-1.46-3.78-1.46c-1.5,0-3.08,0.44-4.74,1.33c-1.66,0.89-3.15,2.17-4.47,3.85v26.5H186.63z"/>
			<path class="st0" d="M256.62,146.22c-1.06,2.47-2.63,4.39-4.71,5.73c-2.08,1.35-4.46,2.02-7.16,2.02c-3.8,0-6.71-1.31-8.72-3.94
				c-2.01-2.63-3.02-5.91-3.02-9.84v-12.13c0-4.73,1.47-8.41,4.41-11.03c2.94-2.63,7.01-3.94,12.23-3.94c1.59,0,3.15,0.13,4.67,0.4
				c1.52,0.26,2.95,0.66,4.27,1.19v-14.38h11.27v53.02H258.6v-7.09H256.62z M249.92,145.09c1.5,0,2.96-0.36,4.37-1.09
				c1.41-0.73,2.85-1.82,4.31-3.28v-17.56c-1.06-0.57-2.2-1.04-3.41-1.39c-1.22-0.35-2.46-0.53-3.74-0.53
				c-2.39,0-4.18,0.58-5.37,1.72c-1.19,1.15-1.79,2.87-1.79,5.17v10.21c0,2.3,0.5,4,1.49,5.1
				C246.77,144.54,248.15,145.09,249.92,145.09z"/>
			<path class="st0" d="M290.62,153.97c-3.71,0-6.76-0.99-9.15-2.98c-2.39-1.99-3.58-4.84-3.58-8.55c0-3.67,1.27-6.47,3.81-8.42
				c2.54-1.94,5.89-2.92,10.04-2.92h10.41v-4.84c0-1.94-0.56-3.32-1.69-4.14c-1.13-0.82-2.77-1.23-4.94-1.23
				c-2.25,0-3.92,0.4-5,1.19c-1.08,0.8-1.89,2.36-2.42,4.71l-9.28-1.66c0.93-4.46,2.68-7.62,5.27-9.48
				c2.58-1.86,6.51-2.78,11.76-2.78c5.52,0,9.75,1.07,12.69,3.21c2.94,2.14,4.41,5.42,4.41,9.84v15.38c0,1.9,0.55,3.08,1.66,3.55
				c1.1,0.46,2.74,0.54,4.9,0.23v8.02c-3.45,0.75-6.31,0.68-8.58-0.2c-2.28-0.88-3.77-2.81-4.47-5.77h-1.79
				c-1.37,1.86-3.29,3.46-5.77,4.81C296.43,153.3,293.66,153.97,290.62,153.97z M293.33,146.68c1.63,0,3.19-0.25,4.67-0.76
				c1.48-0.51,2.86-1.25,4.14-2.22v-6.43H293c-1.5,0-2.67,0.33-3.51,0.99c-0.84,0.66-1.26,1.97-1.26,3.91c0,1.46,0.4,2.57,1.19,3.35
				C290.22,146.3,291.52,146.68,293.33,146.68z"/>
			<path class="st0" d="M371.74,153.31v-53.02h18.36c6.19,0,11.04,1.76,14.55,5.27c3.51,3.51,5.27,8.19,5.27,14.02v14.71
				c0,5.79-1.76,10.41-5.27,13.85c-3.51,3.45-8.38,5.17-14.61,5.17H371.74z M383,144.56h6.1c3.45,0,5.9-0.88,7.36-2.65
				c1.46-1.77,2.19-4.62,2.19-8.55V120.5c0-3.98-0.73-6.88-2.19-8.72c-1.46-1.83-3.91-2.75-7.36-2.75H383V144.56z"/>
			<path class="st0" d="M456.11,144.15c-1.55,3.69-3.68,6.25-6.4,7.68c-2.72,1.43-6.88,2.14-12.49,2.14
				c-5.39,0-9.84-1.27-13.36-3.81c-3.51-2.54-5.27-6.33-5.27-11.37v-10.6c0-4.86,1.66-8.63,4.97-11.3
				c3.31-2.67,7.82-4.01,13.52-4.01c5.7,0,10.18,1.34,13.45,4.01c3.27,2.67,4.9,6.51,4.9,11.5v7.29h-25.58v3.8
				c0,2.27,0.6,4.01,1.79,5.23c1.19,1.22,3.14,1.83,5.83,1.83c2.25,0,4.1-0.34,5.53-1.03c1.44-0.68,2.64-2,3.61-3.94L456.11,144.15z
				 M429.86,127.26v2.25h14.32v-1.66c0-2.78-0.53-4.77-1.59-5.96s-2.92-1.79-5.57-1.79c-2.65,0-4.51,0.56-5.57,1.69
				C430.39,122.92,429.86,124.75,429.86,127.26z"/>
			<path class="st0" d="M476.19,153.97c-3.71,0-6.76-0.99-9.15-2.98c-2.39-1.99-3.58-4.84-3.58-8.55c0-3.67,1.27-6.47,3.81-8.42
				c2.54-1.94,5.89-2.92,10.04-2.92h10.41v-4.84c0-1.94-0.56-3.32-1.69-4.14c-1.13-0.82-2.77-1.23-4.94-1.23
				c-2.25,0-3.92,0.4-5,1.19c-1.08,0.8-1.89,2.36-2.42,4.71l-9.28-1.66c0.93-4.46,2.68-7.62,5.27-9.48
				c2.58-1.86,6.5-2.78,11.76-2.78c5.52,0,9.75,1.07,12.69,3.21c2.94,2.14,4.41,5.42,4.41,9.84v15.38c0,1.9,0.55,3.08,1.66,3.55
				c1.1,0.46,2.74,0.54,4.9,0.23v8.02c-3.45,0.75-6.31,0.68-8.58-0.2c-2.28-0.88-3.77-2.81-4.47-5.77h-1.79
				c-1.37,1.86-3.29,3.46-5.77,4.81C482,153.3,479.24,153.97,476.19,153.97z M478.9,146.68c1.63,0,3.19-0.25,4.67-0.76
				c1.48-0.51,2.86-1.25,4.14-2.22v-6.43h-9.15c-1.5,0-2.67,0.33-3.51,0.99c-0.84,0.66-1.26,1.97-1.26,3.91
				c0,1.46,0.4,2.57,1.19,3.35C475.79,146.3,477.09,146.68,478.9,146.68z"/>
			<path class="st0" d="M512.31,153.31v-8.28h12.79v-36.45h-12.79v-8.28h24.06v44.74h12.33v8.28H512.31z"/>
			<path class="st0" d="M595.28,144.15c-1.55,3.69-3.68,6.25-6.4,7.68c-2.72,1.43-6.88,2.14-12.49,2.14
				c-5.39,0-9.84-1.27-13.35-3.81c-3.51-2.54-5.27-6.33-5.27-11.37v-10.6c0-4.86,1.66-8.63,4.97-11.3
				c3.31-2.67,7.82-4.01,13.52-4.01s10.18,1.34,13.45,4.01c3.27,2.67,4.9,6.51,4.9,11.5v7.29h-25.58v3.8c0,2.27,0.6,4.01,1.79,5.23
				c1.19,1.22,3.14,1.83,5.83,1.83c2.25,0,4.1-0.34,5.53-1.03c1.44-0.68,2.64-2,3.61-3.94L595.28,144.15z M569.04,127.26v2.25h14.32
				v-1.66c0-2.78-0.53-4.77-1.59-5.96c-1.06-1.19-2.92-1.79-5.57-1.79s-4.51,0.56-5.57,1.69
				C569.57,122.92,569.04,124.75,569.04,127.26z"/>
			<path class="st0" d="M606.09,153.31v-39.77h11.27v7.03h1.99c0.97-2.72,2.49-4.68,4.54-5.89c2.05-1.21,4.5-1.81,7.32-1.81
				c3.31,0,5.88,0.98,7.69,2.94c1.81,1.96,2.72,4.73,2.72,8.3v6.94h-10.27v-3.59c0-1.86-0.41-3.3-1.23-4.32
				c-0.82-1.02-2.2-1.53-4.14-1.53c-1.68,0-3.26,0.4-4.74,1.2c-1.48,0.8-2.77,2.13-3.88,3.98v26.5H606.09z"/>
		</g>
	</g>
	<g>
		<path class="st1" d="M59.6,60.95c0-6.61,0-13.17,0-19.76c1.64,0,3.25,0,4.9,0c0,6.57,0,13.15,0,19.76
			C62.88,60.95,61.25,60.95,59.6,60.95z"/>
		<path class="st1" d="M49.65,70.92c0,1.65,0,3.26,0,4.9c-6.59,0-13.15,0-19.75,0c0-1.62,0-3.24,0-4.9
			C36.46,70.92,43.04,70.92,49.65,70.92z"/>
		<path class="st1" d="M64.5,105.53c-1.64,0-3.26,0-4.89,0c0-6.6,0-13.17,0-19.77c1.63,0,3.25,0,4.89,0
			C64.5,92.34,64.5,98.92,64.5,105.53z"/>
		<path class="st1" d="M89.27,70.92c0,1.65,0,3.26,0,4.9c-4.94,0-9.85,0-14.8,0c0-1.62,0-3.24,0-4.9
			C79.39,70.92,84.31,70.92,89.27,70.92z"/>
		<path class="st1" d="M44.74,56c-1.64,0-3.29,0-4.95,0c0-1.63,0-3.24,0-4.89c1.61,0,3.24,0,4.94,0c0,1.62,0,3.26,0,4.9
			C44.73,56.02,44.74,56,44.74,56z"/>
		<path class="st1" d="M79.41,56.05c0-1.64,0-3.29,0-4.95c1.63,0,3.24,0,4.89,0c0,1.61,0,3.24,0,4.94c-1.62,0-3.26,0-4.9,0
			C79.4,56.03,79.41,56.05,79.41,56.05z"/>
		<path class="st1" d="M49.68,60.97c-1.63,0-3.26,0-4.94,0c0-1.66,0-3.32,0-4.97c0,0-0.01,0.01-0.01,0.01c1.63,0,3.26,0,4.94,0
			c0,1.69,0,3.33,0,4.97L49.68,60.97z"/>
		<path class="st1" d="M74.44,60.98c0-1.63,0-3.26,0-4.94c1.66,0,3.32,0,4.97,0c0,0-0.01-0.01-0.01-0.01c0,1.63,0,3.26,0,4.94
			c-1.69,0-3.33,0-4.97,0L74.44,60.98z"/>
		<path class="st1" d="M49.66,60.98c1.63,0,3.26,0,4.93,0c0,1.64,0,3.26,0,4.92c-1.62,0-3.24,0-4.91,0c0-1.65,0-3.29,0-4.93
			C49.68,60.97,49.66,60.98,49.66,60.98z"/>
		<path class="st1" d="M74.43,60.97c0,1.63,0,3.26,0,4.93c-1.64,0-3.26,0-4.92,0c0-1.62,0-3.24,0-4.91c1.65,0,3.29,0,4.93,0
			C74.44,60.98,74.43,60.97,74.43,60.97z"/>
		<path class="st1" d="M49.7,85.76c0-1.64,0-3.29,0-4.95c1.63,0,3.24,0,4.89,0c0,1.61,0,3.24,0,4.94c-1.62,0-3.26,0-4.9,0
			C49.68,85.75,49.7,85.76,49.7,85.76z"/>
		<path class="st1" d="M74.44,85.73c-1.63,0-3.26,0-4.92,0c0-1.64,0-3.26,0-4.91c1.62,0,3.24,0,4.91,0c0,1.64,0,3.29,0,4.93
			L74.44,85.73z"/>
		<path class="st1" d="M44.73,90.7c0-1.63,0-3.26,0-4.94c1.66,0,3.32,0,4.97,0c0,0-0.01-0.01-0.01-0.01c0,1.63,0,3.26,0,4.94
			c-1.69,0-3.33,0-4.97,0L44.73,90.7z"/>
		<path class="st1" d="M74.43,85.75c1.63,0,3.27,0,4.95,0c0,1.67,0,3.31,0,4.95l0.01-0.01c-1.63,0-3.26,0-4.95,0
			c0-1.67,0-3.31,0-4.95C74.44,85.73,74.43,85.75,74.43,85.75z"/>
		<path class="st1" d="M44.71,90.69c0,1.63,0,3.26,0,4.93c-1.64,0-3.26,0-4.92,0c0-1.62,0-3.24,0-4.91c1.65,0,3.29,0,4.93,0
			C44.73,90.7,44.71,90.69,44.71,90.69z"/>
		<path class="st1" d="M79.38,90.7c1.63,0,3.26,0,4.93,0c0,1.64,0,3.26,0,4.92c-1.62,0-3.24,0-4.91,0c0-1.65,0-3.29,0-4.93
			C79.39,90.69,79.38,90.7,79.38,90.7z"/>
	</g>
</g>
</svg>
