<?xml version="1.0" encoding="utf-8"?>
<!-- Generator: Adobe Illustrator 28.2.0, SVG Export Plug-In . SVG Version: 6.00 Build 0)  -->
<svg version="1.1" id="Layer_1" xmlns="http://www.w3.org/2000/svg" xmlns:xlink="http://www.w3.org/1999/xlink" x="0px" y="0px"
	 viewBox="0 0 443.2 100" style="enable-background:new 0 0 443.2 100;" xml:space="preserve">
<style type="text/css">
	.st0{fill:#FF0000;}
	.st1{fill:#FFFFFF;}
</style>
<g transform="matrix(5.715038, 0, 0, 5.715038, 409.288757, 277.787231)">
	<g>
		<path class="st0" d="M-47.1-45.7c-0.3-1-1.1-1.9-2.1-2.1c-1.9-0.5-9.5-0.5-9.5-0.5s-7.6,0-9.5,0.5c-1,0.3-1.9,1.1-2.1,2.1
			c-0.5,1.9-0.5,5.8-0.5,5.8s0,3.9,0.5,5.8c0.3,1,1.1,1.9,2.1,2.1c1.9,0.5,9.5,0.5,9.5,0.5s7.6,0,9.5-0.5c1-0.3,1.9-1.1,2.1-2.1
			c0.5-1.9,0.5-5.8,0.5-5.8S-46.6-43.8-47.1-45.7z"/>
		<path class="st1" d="M-61.1-36.2l6.3-3.6l-6.3-3.6V-36.2z"/>
	</g>
	<g>
		<g id="youtube-paths">
			<path class="st1" d="M-41.4-37.3l-2.7-9.8h2.4l1,4.5c0.2,1.1,0.4,2,0.5,2.8h0.1c0.1-0.6,0.3-1.5,0.5-2.8l1-4.5h2.4l-2.8,9.8v4.7
				h-2.4L-41.4-37.3L-41.4-37.3z"/>
			<path class="st1" d="M-35.6-32.9c-0.5-0.3-0.8-0.8-1-1.5c-0.2-0.7-0.3-1.6-0.3-2.7v-1.5c0-1.1,0.1-2.1,0.3-2.8
				c0.2-0.7,0.6-1.2,1.1-1.5c0.5-0.3,1.1-0.5,1.9-0.5c0.8,0,1.4,0.2,1.9,0.5c0.5,0.3,0.8,0.8,1,1.5c0.2,0.7,0.3,1.6,0.3,2.7v1.5
				c0,1.1-0.1,2-0.3,2.7c-0.2,0.7-0.6,1.2-1,1.5c-0.5,0.3-1.1,0.5-2,0.5C-34.5-32.4-35.1-32.6-35.6-32.9z M-32.9-34.6
				c0.1-0.3,0.2-0.9,0.2-1.7v-3.3c0-0.8-0.1-1.3-0.2-1.7c-0.1-0.4-0.4-0.5-0.7-0.5c-0.3,0-0.6,0.2-0.7,0.5c-0.1,0.4-0.2,0.9-0.2,1.7
				v3.3c0,0.8,0.1,1.4,0.2,1.7c0.1,0.3,0.4,0.5,0.7,0.5C-33.3-34-33-34.2-32.9-34.6z"/>
			<path class="st1" d="M-22.6-32.6h-1.9l-0.2-1.3h-0.1c-0.5,1-1.3,1.5-2.3,1.5c-0.7,0-1.2-0.2-1.6-0.7c-0.3-0.5-0.5-1.2-0.5-2.2
				v-7.9h2.4v7.8c0,0.5,0.1,0.8,0.2,1c0.1,0.2,0.3,0.3,0.5,0.3c0.2,0,0.4-0.1,0.6-0.2c0.2-0.1,0.3-0.3,0.4-0.5v-8.4h2.4V-32.6z"/>
			<path class="st1" d="M-16.1-45.2h-2.4v12.6h-2.3v-12.6h-2.4v-1.9h7.1V-45.2z"/>
			<path class="st1" d="M-10.3-32.6h-1.9l-0.2-1.3h-0.1c-0.5,1-1.3,1.5-2.3,1.5c-0.7,0-1.2-0.2-1.6-0.7c-0.3-0.5-0.5-1.2-0.5-2.2
				v-7.9h2.4v7.8c0,0.5,0.1,0.8,0.2,1c0.1,0.2,0.3,0.3,0.5,0.3c0.2,0,0.4-0.1,0.6-0.2c0.2-0.1,0.3-0.3,0.4-0.5v-8.4h2.4V-32.6z"/>
			<path class="st1" d="M-2.4-41.5c-0.1-0.7-0.4-1.2-0.7-1.5c-0.3-0.3-0.8-0.5-1.3-0.5c-0.4,0-0.9,0.1-1.2,0.4
				c-0.4,0.2-0.7,0.6-0.9,1h0v-5.6h-2.3v15.1h2l0.2-1h0.1c0.2,0.4,0.5,0.6,0.8,0.9c0.4,0.2,0.8,0.3,1.2,0.3c0.8,0,1.4-0.4,1.8-1.1
				c0.4-0.7,0.6-1.9,0.6-3.5v-1.7C-2.2-39.9-2.2-40.9-2.4-41.5z M-4.6-37.2c0,0.8,0,1.4-0.1,1.8c-0.1,0.4-0.2,0.8-0.3,0.9
				c-0.1,0.2-0.4,0.3-0.6,0.3c-0.2,0-0.4,0-0.5-0.1c-0.2-0.1-0.3-0.2-0.4-0.4v-6c0.1-0.3,0.2-0.5,0.4-0.7c0.2-0.2,0.4-0.3,0.6-0.3
				c0.2,0,0.4,0.1,0.6,0.3c0.1,0.2,0.2,0.5,0.3,1c0.1,0.5,0.1,1.1,0.1,1.9L-4.6-37.2L-4.6-37.2z"/>
			<path class="st1" d="M1.2-36.6c0,0.7,0,1.2,0.1,1.5c0,0.3,0.1,0.6,0.3,0.7c0.1,0.2,0.3,0.2,0.6,0.2c0.4,0,0.6-0.1,0.7-0.4
				c0.1-0.3,0.2-0.7,0.2-1.4l2.1,0.1c0,0.1,0,0.2,0,0.4c0,1-0.3,1.7-0.8,2.2c-0.5,0.5-1.3,0.7-2.3,0.7c-1.2,0-2-0.4-2.5-1.1
				c-0.5-0.7-0.7-1.9-0.7-3.4v-1.9c0-1.6,0.2-2.8,0.7-3.5c0.5-0.7,1.3-1.1,2.5-1.1c0.8,0,1.5,0.1,1.9,0.5c0.4,0.3,0.7,0.8,0.9,1.4
				c0.2,0.6,0.3,1.5,0.3,2.6v1.8h-4V-36.6z M1.5-41.6c-0.1,0.1-0.2,0.4-0.2,0.7c0,0.3-0.1,0.9-0.1,1.6v0.8H3v-0.8
				c0-0.7,0-1.2-0.1-1.6c0-0.4-0.1-0.6-0.3-0.7c-0.1-0.1-0.3-0.2-0.6-0.2C1.9-41.8,1.7-41.7,1.5-41.6z"/>
		</g>
	</g>
</g>
</svg>
